<?xml version="1.0" encoding="iso-8859-1"?>
<!-- Generator: Adobe Illustrator 19.0.0, SVG Export Plug-In . SVG Version: 6.00 Build 0)  -->
<svg version="1.1" id="Capa_1" xmlns="http://www.w3.org/2000/svg" xmlns:xlink="http://www.w3.org/1999/xlink" x="0px" y="0px"
	 viewBox="0 0 512.004 512.004" style="enable-background:new 0 0 512.004 512.004;" xml:space="preserve">
<g>
	<g>
		<path d="M480.002,128.004H10.669c-5.888,0-10.667,4.757-10.667,10.667c0,5.909,4.779,10.667,10.667,10.667h469.333
			c5.888,0,10.667-4.779,10.667-10.667S485.89,128.004,480.002,128.004z"/>
	</g>
</g>
<g>
	<g>
		<path d="M461.463,128.366c-5.717-1.579-11.563,1.813-13.099,7.488l-29.099,106.731c-1.536,5.675,1.792,11.541,7.488,13.099
			c0.939,0.277,1.899,0.384,2.816,0.384c4.672,0,9.003-3.115,10.283-7.872l29.099-106.731
			C470.487,135.79,467.159,129.924,461.463,128.366z"/>
	</g>
</g>
<g>
	<g>
		<path d="M245.335,362.67H128.578c-14.379,0-27.072-9.685-30.869-23.573L42.284,135.876c-1.536-5.675-7.317-9.067-13.099-7.488
			c-5.675,1.557-9.024,7.403-7.467,13.099l55.403,203.221c6.315,23.147,27.477,39.296,51.456,39.296h116.757
			c5.888,0,10.667-4.779,10.667-10.667C256.002,367.449,251.223,362.67,245.335,362.67z"/>
	</g>
</g>
<g>
	<g>
		<path d="M229.911,1.796c-4.843-3.243-11.499-1.941-14.784,2.965l-85.333,128c-3.264,4.907-1.941,11.52,2.965,14.784
			c1.813,1.216,3.861,1.792,5.909,1.792c3.435,0,6.805-1.664,8.875-4.757l85.333-128C236.14,11.673,234.796,5.06,229.911,1.796z"/>
	</g>
</g>
<g>
	<g>
		<path d="M360.877,132.761l-85.333-128c-3.307-4.928-9.92-6.229-14.784-2.965c-4.907,3.264-6.229,9.877-2.965,14.784l85.333,128
			c2.069,3.093,5.44,4.757,8.875,4.757c2.048,0,4.096-0.576,5.909-1.792C362.818,144.281,364.141,137.668,360.877,132.761z"/>
	</g>
</g>
<g>
	<g>
		<path d="M394.669,277.337c-64.683,0-117.333,52.629-117.333,117.333s52.651,117.333,117.333,117.333
			s117.333-52.629,117.333-117.333S459.351,277.337,394.669,277.337z M394.669,490.67c-52.928,0-96-43.072-96-96s43.072-96,96-96
			c52.928,0,96,43.072,96,96S447.596,490.67,394.669,490.67z"/>
	</g>
</g>
<g>
	<g>
		<path d="M466.178,344.473c-4.16-4.16-10.923-4.16-15.083,0l-77.781,77.781l-35.115-35.115c-4.16-4.16-10.923-4.16-15.083,0
			c-4.16,4.16-4.16,10.923,0,15.083l42.667,42.667c2.091,2.069,4.821,3.115,7.552,3.115c2.731,0,5.461-1.045,7.509-3.115
			l85.333-85.333C470.338,355.396,470.338,348.633,466.178,344.473z"/>
	</g>
</g>
<g>
</g>
<g>
</g>
<g>
</g>
<g>
</g>
<g>
</g>
<g>
</g>
<g>
</g>
<g>
</g>
<g>
</g>
<g>
</g>
<g>
</g>
<g>
</g>
<g>
</g>
<g>
</g>
<g>
</g>
</svg>
