<svg xmlns="http://www.w3.org/2000/svg" viewBox="0 0 463.83 469.27"><defs><style>.cls-1{isolation:isolate;font-size:295.4px;font-family:HiraMaruPro-W4-83pv-RKSJ-H, Hiragino Maru Gothic Pro;}</style></defs><g id="Layer_4" data-name="Layer 4"><circle cx="262.03" cy="390.27" r="8"/><path d="M463.83,189.86C463.83,85,378.83,0,274,0S84.11,85,84.11,189.86a189.84,189.84,0,0,0,8.22,55.41H6.92c-3.45,0-6.18,3.09-6.18,5.09l0,2.88a11.75,11.75,0,0,0-.72,4v172a8,8,0,0,0,8,8H39.94a32,32,0,0,0,32,32h0a32,32,0,0,0,32-32H224a32,32,0,0,0,64.06,0h8.33a7.64,7.64,0,0,0,7.64-7.63V381.17a7.66,7.66,0,0,0-1-3.67C394.1,363.51,463.83,284.83,463.83,189.86ZM72,453.27a16,16,0,1,1,16-16A16,16,0,0,1,72,453.27Zm135.82-32H99.7a32.15,32.15,0,0,0-6.55-8l-.2-.17c-.44-.39-.9-.77-1.37-1.13l-.19-.15a32.16,32.16,0,0,0-3.3-2.21l-.13-.07-.19-.11c-.35-.2-.7-.39-1.06-.57l-.38-.2-1-.49-.48-.22-.91-.37-.63-.25-.75-.28-.82-.27-.58-.18-1-.28-.42-.11c-.39-.1-.79-.19-1.19-.27l-.27-.06c-.44-.09-.89-.17-1.34-.24l-.17,0c-.48-.07-1-.13-1.45-.18l-.13,0c-.49-.05-1-.08-1.47-.11h-.17l-1.41,0h-.26c-.69,0-1.39,0-2.09.07h0c-.6,0-1.2.1-1.79.18l-.94.14c-.24,0-.48.08-.72.12a32,32,0,0,0-22.08,15.48H16v-32H207.82Zm0-48H16v-112H207.82Zm48.2,80c-.46,0-.91,0-1.36-.07h-.27a16,16,0,1,1,1.63.08Zm32-32h-4.27a32.22,32.22,0,0,0-14.61-13.18l-.09,0c-.4-.18-.8-.35-1.21-.51l-.56-.22c-.35-.13-.7-.26-1.05-.37l-1-.33-.89-.26c-.52-.14-1-.27-1.57-.38l-.51-.1c-.54-.11-1.08-.2-1.62-.28l-.29,0a30.75,30.75,0,0,0-4.17-.28h-.22a31.48,31.48,0,0,0-4,.26l-.67.1-1.15.19-.82.16-1.21.29c-.47.12-.93.26-1.39.4l-.64.2-1.08.37-.57.22c-.62.24-1.23.51-1.84.79l-.63.29L241,409l-.79.43c-.26.15-.51.29-.76.45s-.7.43-1.05.66l-.51.33c-.47.32-.93.66-1.38,1-.18.13-.35.28-.53.42s-.61.49-.91.75l-.57.51c-.27.24-.52.49-.78.74a33.88,33.88,0,0,0-2.63,2.86.76.76,0,0,1-.08.11,30.56,30.56,0,0,0-2.76,4H224v-64h39.64L288,384.59ZM224,341V293.27h10.42L252.32,341Zm68.55,25.49-21.74-21.86L262,321.05,247.42,282.1A7.81,7.81,0,0,0,240.1,277H224V253.27a8,8,0,0,0-8-8H104.5A177.1,177.1,0,1,1,450,190.53C450,281.69,381.12,356.75,292.55,366.51Z"/><g id="Layer_2" data-name="Layer 2"><text class="cls-1" transform="translate(180.41 296.27)">¥</text></g></g></svg>