<svg id="truck" xmlns="http://www.w3.org/2000/svg" width="38.794" height="30" viewBox="0 0 38.794 30">
  <path id="Path_950" data-name="Path 950" d="M38.687,42.781l-3.008-6.5a1.145,1.145,0,0,0-1.039-.664H25.183V29.957a1.144,1.144,0,0,0-1.145-1.145H1.145A1.144,1.144,0,0,0,0,29.957V49.218a1.144,1.144,0,0,0,1.145,1.145H3.386a5.932,5.932,0,0,0-.427,1.329H1.145a1.145,1.145,0,0,0,0,2.289H2.959a5.976,5.976,0,0,0,11.73,0h9.552a5.975,5.975,0,0,0,11.729,0h1.678a1.144,1.144,0,0,0,1.145-1.145V43.262A1.147,1.147,0,0,0,38.687,42.781Zm-14.446,8.91H14.689a5.924,5.924,0,0,0-.427-1.329h9.776a1.139,1.139,0,0,0,.783-.312A5.929,5.929,0,0,0,24.241,51.692ZM2.289,31.1h20.6V48.073H12.429a5.961,5.961,0,0,0-7.209,0H2.289ZM8.825,56.523a3.687,3.687,0,1,1,3.687-3.687A3.691,3.691,0,0,1,8.825,56.523Zm21.282,0a3.687,3.687,0,1,1,3.687-3.687A3.691,3.691,0,0,1,30.106,56.523Zm6.4-4.831h-.533a5.973,5.973,0,0,0-10.827-2.18,1.149,1.149,0,0,0,.039-.293V37.909H33.91l2.595,5.6Z" transform="translate(0 -28.812)" fill="#4b2c34"/>
  <path id="Path_951" data-name="Path 951" d="M178.186,95.3h-4.974a1.183,1.183,0,0,0-1.183,1.183v3.289a1.183,1.183,0,0,0,1.183,1.183h6.537a1.183,1.183,0,0,0,1.03-1.765l-1.524-3.213A1.183,1.183,0,0,0,178.186,95.3Zm-3.791,3.288v-.923h3.043l.438.923Z" transform="translate(-146.198 -85.232)" fill="#4b2c34"/>
</svg>
