<svg id="Layer_1" data-name="Layer 1" xmlns="http://www.w3.org/2000/svg" viewBox="0 0 119.7 107.67"><defs><style>.cls-1{fill:#404041;}</style></defs><path class="cls-1" d="M39.16,34c-2.87.32-6.44.71-9.88,3.87-7.53,6.92-7.76,10.76-8.51,23.51-.09,1.46-.18,3.06-.29,4.81-.36,5.57-5,11.85-9.56,17.92C7,89.27,3.38,94.19,1.81,99.25a3.84,3.84,0,0,0,.3,3,4.22,4.22,0,0,0,.37.88,3.89,3.89,0,0,0,3.35,1.91H6c5.29-.25,11-2.57,17-5,7-2.86,14.26-5.81,19.74-4.76,1.73.33,3.3.63,4.73.92,12.54,2.47,16.32,3.21,24.9-2.34,3.93-2.55,5.2-5.9,6.22-8.6s1.82-4.81,5.19-6.83a5.57,5.57,0,0,1,3.14-1.07,27.78,27.78,0,0,0,6.23,3.39,10.78,10.78,0,0,0,4.75,1.13,12.42,12.42,0,0,0,7.56-1.56c4.51-2.66,8.89-9.5,11.16-17.43,2.69-9.38,1.93-18.34-2.12-25.22a28.62,28.62,0,0,0-12-10.85,29,29,0,0,0-7.7-15.14C81.88-1.23,58.18,2.8,51.24,9.75l-.06.05,0,0c-6,5.93-4.18,11.08-3,14.5l.15.42c.16.66.35,1.34.57,2s.17,1.91-1.81,3.85C44.27,33.39,42,33.64,39.16,34Zm64,2.44a18.77,18.77,0,0,1,4.64,5.21c4,6.79,2.56,14.92,1.35,19.16-1.87,6.54-5.33,11.51-7.64,12.87a4.87,4.87,0,0,1-3,.51,2.79,2.79,0,0,0-.5,0,3.23,3.23,0,0,1-1.58-.42l-.4-.17a20.53,20.53,0,0,1-5.17-2.91A3.8,3.8,0,0,0,89.58,70c-3.13-.89-6.33-.31-9.79,1.78-5.68,3.41-7.29,7.64-8.46,10.73-.94,2.48-1.46,3.72-3.18,4.83C62.21,91.19,61,90.94,49,88.58l-4.77-.93c-4.43-.84-9.05-.09-13.71,1.32,3.2-1.94,6.34-3.34,9.28-3.53l4.81-.29c12.75-.76,16.6-1,23.51-8.51,3.17-3.45,3.56-7,3.87-9.88s.56-5.11,3.32-7.92A5.54,5.54,0,0,1,78,57a28,28,0,0,0,6.88,1.71,10.86,10.86,0,0,0,4.89-.09,12.4,12.4,0,0,0,6.92-3.41C100.11,51.86,102.79,44.52,103.17,36.39Zm-50.66-.21c3.47-3.41,4.75-7,3.94-11.12a3.31,3.31,0,0,0-.12-.45c-.21-.63-.38-1.25-.52-1.83,0-.12-.07-.25-.11-.37l-.22-.64c-1-2.84-1.38-3.91,1.07-6.36l0,0,.16-.16,0-.05c4.31-4.17,23.15-7.39,32.53,2s6.13,28.38,1.93,32.58A4.84,4.84,0,0,1,88.44,51a3.86,3.86,0,0,0-.49.1,3.14,3.14,0,0,1-1.64,0,3,3,0,0,0-.42-.06,20.76,20.76,0,0,1-5.74-1.53,3.86,3.86,0,0,0-1.38-.28c-3.27-.08-6.2,1.29-9,4.17-4.64,4.73-5.13,9.23-5.49,12.51-.29,2.64-.49,4-1.87,5.48-4.79,5.21-6.07,5.29-18.25,6-1.48.09-3.09.18-4.86.3a27,27,0,0,0-11.41,3.81l7-7a2.56,2.56,0,0,0,.56-.53.21.21,0,0,1,0-.06l1.07-1.07a2.34,2.34,0,0,0,.63-.32c8.52-6.32,18.85-5.14,19-5.12a2.33,2.33,0,0,0,.58-4.62A33.38,33.38,0,0,0,46,63.56L61.63,48a2.09,2.09,0,0,0,.28-.17c8-5.92,17.68-4.81,17.78-4.8a2.33,2.33,0,1,0,.58-4.62,31.08,31.08,0,0,0-9.56.58L80,29.82a2.33,2.33,0,0,0-3.28-3.3l-10.12,10a39.05,39.05,0,0,0,.59-14.4,2.33,2.33,0,1,0-4.58.83c0,.12,2.15,12.46-4.83,22.23a2.25,2.25,0,0,0-.12.21l-5.14,5.1a19,19,0,0,0-.18-4.14,2.33,2.33,0,0,0-4.58.82c0,.06,1,5.79-2.21,10.23L39.87,63A31.16,31.16,0,0,0,40,53.3a2.33,2.33,0,0,0-4.59.83c0,.1,1.61,9.32-3.49,16.8L24,78.81a27.81,27.81,0,0,0,4.25-12.16c.12-1.77.21-3.39.3-4.86.72-12.19.79-13.46,6-18.25C36,42.16,37.37,42,40,41.67,43.29,41.31,47.79,40.82,52.51,36.18Z"/></svg>