<svg id="_03" data-name="03" xmlns="http://www.w3.org/2000/svg" viewBox="0 0 219 83"><defs><style>.cls-1{fill:none;}.cls-2{fill:#903014;}.cls-3{fill:#6d3010;}.cls-4{fill:#95562a;}.cls-5{fill:#b7592c;}.cls-6{fill:#905732;}.cls-7{fill:#95c11f;}.cls-8{fill:#bf83b8;}.cls-9{fill:#ee7a9c;}.cls-10{fill:#ffde1d;}.cls-11{fill:#f8c2c2;}.cls-12{fill:#dd663b;stroke:#bca986;stroke-miterlimit:10;stroke-width:2px;}</style></defs><path class="cls-1" d="M12.28,43.81a2.89,2.89,0,0,1-.63,1.07,3.47,3.47,0,0,1-.42.34,39.18,39.18,0,0,1,6.27,1.86,2,2,0,0,1,.1-.26A45.42,45.42,0,0,1,12.28,43.81Z"/><path class="cls-1" d="M42.92,36.19c.16-.36.33-.72.51-1.09a3.24,3.24,0,0,1-.31-.24c-.13.42-.27.84-.41,1.24Z"/><path class="cls-1" d="M33.76,52.54c-1.69,0-4.85-1-7.49-2,0,.09-.06.18-.1.26a38.18,38.18,0,0,1,5.9,3.44,21.33,21.33,0,0,1,2.44-1.76C34.26,52.51,34,52.54,33.76,52.54Z"/><path class="cls-1" d="M20,44.36l.25-.1c-.93-2.74-1.91-6-1.91-7.79a8.24,8.24,0,0,1,.43-2.71,4.49,4.49,0,0,1-3.28.57,6.16,6.16,0,0,1-2.76,1.08,6.88,6.88,0,0,1,3.33,2C17.21,38.69,18.76,41.74,20,44.36Z"/><path class="cls-1" d="M30.26,35.67a3.83,3.83,0,0,1,2.84-.16,5.9,5.9,0,0,1-.81-.68c-1.81-1.88-2.15-4-1.16-5.28-.79-1.39-1.59-3-2.29-4.55l-.26.11c1,2.86,2,6.28,2,8.11A9.26,9.26,0,0,1,30.26,35.67Z"/><path class="cls-1" d="M21.88,30.89a2.68,2.68,0,0,1,1.45.44,52.37,52.37,0,0,1,1.78-6.22L24.85,25a48.9,48.9,0,0,1-3.12,5.91Z"/><path class="cls-1" d="M58.14,40.23c1.6.41,3.43,1,5.08,1.63,0-.09.07-.18.1-.27-1.38-.68-2.87-1.47-4.16-2.25A4,4,0,0,1,58.14,40.23Z"/><path class="cls-1" d="M14.26,28.27a9.73,9.73,0,0,1,1.2-1.56c1.24-1.29,4.29-3,6.92-4.27a2.15,2.15,0,0,1-.1-.27c-2.75,1-6,2.07-7.8,2.07a7.76,7.76,0,0,1-3-.55,9.31,9.31,0,0,1-1.2,1.56c-1.25,1.3-4.31,3-6.95,4.29a2.15,2.15,0,0,1,.1.27c2.76-1,6.07-2.08,7.84-2.08A7.71,7.71,0,0,1,14.26,28.27Z"/><path class="cls-1" d="M9.69,36.14a2.55,2.55,0,0,1,1.05-.65,36.23,36.23,0,0,1-7.26-2.05c0,.09-.06.18-.1.27A43.79,43.79,0,0,1,9.14,37,2.92,2.92,0,0,1,9.69,36.14Z"/><path class="cls-1" d="M40,24.19a6.33,6.33,0,0,1-.76,0c-1.76,0-5.06-1.06-7.8-2.07l-.11.27c2.63,1.31,5.68,3,6.93,4.27.19.21.35.42.52.62a3,3,0,0,1,2.58-2.28c1.28,0,2.36,1.13,2.77,2.94.13-.15.25-.3.39-.45,1.32-1.38,4.57-3.16,7.37-4.55,0-.09-.07-.19-.11-.29-2.93,1.08-6.43,2.21-8.31,2.21A8.09,8.09,0,0,1,40,24.19Z"/><path class="cls-1" d="M50.37,34.83a24.28,24.28,0,0,1-5.5,3.39l.09.21a23.64,23.64,0,0,1,6.19-1.64A6.35,6.35,0,0,1,53,37a10.07,10.07,0,0,1-.32-2.56c0-1.94,1.09-5.59,2.13-8.63l-.28-.12c-.75,1.63-1.62,3.41-2.47,4.9A5,5,0,0,1,50.37,34.83Z"/><path class="cls-1" d="M51.54,46.51c.77,1.49.72,3-.13,3.84A2.27,2.27,0,0,1,50.3,51a18.37,18.37,0,0,1,4.06,2.63,7.63,7.63,0,0,1,2-3.58c1.25-1.3,4.29-3,6.92-4.27,0-.09-.06-.18-.1-.27-2.75,1-6,2.07-7.8,2.07A7,7,0,0,1,51.54,46.51Z"/><path class="cls-1" d="M44.87,41.52a29.47,29.47,0,0,1,5.1,3,3.17,3.17,0,0,1-.14-.87,2.77,2.77,0,0,1,.14-.86,33.94,33.94,0,0,1-5-1.51Z"/><path class="cls-1" d="M61.68,31.84c1.24,1.29,2.85,4.46,4.11,7.19l.26-.1c-.46-1.36-.94-2.83-1.3-4.21a9.27,9.27,0,0,1-1.62-1.34c-1.32-1.37-3-4.75-4.37-7.66l-.28.12c.5,1.46,1,3.06,1.4,4.55A8.37,8.37,0,0,1,61.68,31.84Z"/><path class="cls-1" d="M75,40.17c-.9.5-1.84,1-2.73,1.42,0,.09.07.18.1.27,1.07-.39,2.21-.79,3.32-1.13A4.32,4.32,0,0,1,75,40.17Z"/><path class="cls-1" d="M88.65,48.15c.39-1.7,1-3.71,1.62-5.5l-.26-.1c-.7,1.52-1.51,3.19-2.31,4.58A13.17,13.17,0,0,1,88.65,48.15Z"/><path class="cls-1" d="M73.78,46l-1.43-.51c0,.09-.06.18-.1.27l1.58.8C73.81,46.37,73.8,46.18,73.78,46Z"/><path class="cls-1" d="M90.27,33.12c-.49-1.45-1-3-1.37-4.49-.26.26-.52.52-.78.76.66,1.22,1.31,2.57,1.89,3.84Z"/><path class="cls-1" d="M7.74,45.41A8,8,0,0,1,5,43.51C3.78,42.21,2.17,39,.91,36.28l-.26.11c1,2.87,2,6.31,2,8.15a8,8,0,0,1-.94,3.94A17.63,17.63,0,0,1,5,47.41,4.49,4.49,0,0,1,7.74,45.41Z"/><path class="cls-1" d="M87.54,35.8a51,51,0,0,1-5.22-2.91c-.35.13-.69.26-1,.37a6.3,6.3,0,0,1-.19.9,44.91,44.91,0,0,1,6.34,1.91C87.47,36,87.5,35.89,87.54,35.8Z"/><path class="cls-1" d="M42.92,43.55l-.21.09a30.69,30.69,0,0,1,1.55,5.92,14.07,14.07,0,0,1,2.54.27,6.53,6.53,0,0,1-.62-.57A25.44,25.44,0,0,1,42.92,43.55Z"/><path class="cls-1" d="M73.61,55.18a36.29,36.29,0,0,1-3.82-6.87l-.27.1a46,46,0,0,1,1.87,6.77Z"/><path class="cls-1" d="M38.79,47.48c.31-1.23.74-2.6,1.16-3.84l-.21-.09c-.47,1-1,2.13-1.54,3.12A3.23,3.23,0,0,1,38.79,47.48Z"/><path class="cls-1" d="M34.79,37.45c1,.29,2,.64,2.92,1a1.8,1.8,0,0,1,.08-.21c-1.23-.61-2.56-1.31-3.66-2A2.83,2.83,0,0,1,34.79,37.45Z"/><path class="cls-1" d="M32.29,44.91a23.93,23.93,0,0,1,5.5-3.39,1.43,1.43,0,0,1-.08-.22,34.38,34.38,0,0,1-5,1.5,30.5,30.5,0,0,1-6.56,4c0,.08.06.17.1.26a44.63,44.63,0,0,1,5.66-1.75C32.05,45.19,32.16,45.05,32.29,44.91Z"/><path class="cls-1" d="M40,36.1c-.25-.73-.5-1.51-.73-2.28a3.76,3.76,0,0,1-.47.3c.35.68.68,1.39,1,2.07Z"/><path class="cls-1" d="M25.21,38.47a49.51,49.51,0,0,1-1.66,5.79l.25.1A50.59,50.59,0,0,1,26.6,39,2.82,2.82,0,0,1,25.21,38.47Z"/><path class="cls-1" d="M62.71,55.18h1.47a46,46,0,0,1,1.87-6.77l-.26-.1A36.84,36.84,0,0,1,62,55.18Z"/><path class="cls-1" d="M84.77,41.42c.91-.5,1.86-1,2.77-1.44a2.31,2.31,0,0,1-.1-.28c-1.08.4-2.24.8-3.37,1.15A4,4,0,0,1,84.77,41.42Z"/><path class="cls-1" d="M20,53.27c-.28.62-.59,1.27-.91,1.91h.57c.19-.61.39-1.22.59-1.81Z"/><path class="cls-1" d="M104.44,41.78c-1.76,0-5.07-1.06-7.83-2.08,0,.1-.07.19-.11.28,2.64,1.31,5.71,3,7,4.28,2.38,2.49,2.78,5.36,1.31,6.88s-4.23,1.12-6.62-1.37c-1.24-1.29-2.86-4.48-4.12-7.22l-.26.1c1,2.87,2,6.31,2,8.15a7.4,7.4,0,0,1-1.22,4.38h15.51V37.89C110.06,40,107.82,41.78,104.44,41.78Z"/><polygon class="cls-1" points="78.62 81.01 78.62 81.01 44.18 81.01 9.75 81.01 0.06 81.01 0.06 81.94 110.06 81.94 110.06 81.01 78.62 81.01 78.62 81.01"/><path class="cls-1" d="M23.55,53.37c.2.59.4,1.2.6,1.81h.56c-.31-.64-.62-1.29-.91-1.91Z"/><path class="cls-1" d="M2.65,18.71c0,1.84-1,5.28-2,8.15l.26.1C2.17,24.22,3.78,21,5,19.74c1.83-1.9,3.87-2.58,5.39-2.11a6.91,6.91,0,0,1,4.06-1.14c1.76,0,5.05,1.06,7.8,2.07l.1-.27c-2.63-1.31-5.68-3-6.92-4.27-2.38-2.47-2.77-5.34-1.31-6.85s4.21-1.11,6.59,1.37C22,9.83,23.59,13,24.85,15.73l.26-.11c-1-2.85-2-6.28-2-8.11,0-3.49,1.67-5.81,3.73-5.81S30.58,4,30.58,7.51c0,1.83-1,5.26-2,8.11l.26.11C30.1,13,31.71,9.83,33,8.54c2.38-2.48,5.13-2.89,6.59-1.37s1.07,4.38-1.31,6.85c-1.25,1.29-4.3,3-6.93,4.27l.11.27c2.74-1,6-2.07,7.8-2.07a8.15,8.15,0,0,1,2.41.35,8.75,8.75,0,0,1,1.82-.2c1.88,0,5.38,1.13,8.31,2.2,0-.09.07-.19.11-.28-2.8-1.39-6-3.17-7.37-4.55-2.53-2.63-3-5.69-1.4-7.3s4.49-1.18,7,1.45c1.32,1.38,3,4.75,4.37,7.67a1.39,1.39,0,0,1,.28-.12c-1-3.05-2.13-6.69-2.13-8.64,0-3.72,1.79-6.19,4-6.19H.06V13.16C1.56,13.86,2.65,15.89,2.65,18.71Z"/><path class="cls-1" d="M17.5,50.55c-1.06.39-2.19.78-3.29,1.12-.12.38-.27.78-.42,1.19,1.19-.71,2.55-1.42,3.81-2A2,2,0,0,1,17.5,50.55Z"/><path class="cls-1" d="M56.62.88c2.2,0,4,2.47,4,6.19,0,1.95-1.08,5.6-2.12,8.64.09,0,.19.07.28.12,1.33-2.92,3.05-6.29,4.37-7.67,2.53-2.63,5.47-3.07,7-1.45s1.14,4.67-1.4,7.3c-1.32,1.38-4.57,3.16-7.37,4.55l.12.28c2.92-1.07,6.43-2.2,8.3-2.2,3.59,0,6,1.85,6,4.13s-2.37,4.14-6,4.14c-1.87,0-5.38-1.13-8.3-2.21l-.12.29c1.59.79,3.31,1.7,4.76,2.59A2.79,2.79,0,0,1,67.79,25c2.06,0,3.73,2.31,3.73,5.81,0,1.83-1,5.25-2,8.11l.27.1c1.25-2.73,2.86-5.9,4.1-7.19a9.79,9.79,0,0,1,.84-.77C76,10.79,94,13.3,94,13.3a28,28,0,0,1-.53,6.26c1.35.82,2.29,2.78,2.29,5.42,0,1.83-1,5.27-2,8.14l.26.11c1.26-2.75,2.88-5.93,4.12-7.23,2.39-2.48,5.16-2.89,6.62-1.37s1.07,4.4-1.31,6.88c-1.25,1.3-4.32,3-7,4.29l.11.27c2.76-1,6.07-2.08,7.83-2.08,3.38,0,5.62,1.75,5.62,3.9V.88Z"/><rect class="cls-2" x="97.14" y="55.18" width="12.91" height="12.92"/><path class="cls-2" d="M28.27,68.1V60.66c-.18-.16-.35-.3-.52-.48a22.92,22.92,0,0,1-3.05-5h-.56a24.63,24.63,0,0,1,1.32,6c0,3.36-1.61,5.58-3.59,5.58s-3.59-2.22-3.59-5.58a24.17,24.17,0,0,1,1.32-6H19a23,23,0,0,1-3,5C13.7,62.55,11.05,63,9.65,61.49A2.79,2.79,0,0,1,9,60.36,16.57,16.57,0,0,1,0,65V68.1H28.27Z"/><path class="cls-3" d="M62.71,68.1V55.18H62a3,3,0,0,1-.28.32,7.19,7.19,0,0,1-3.45,2.12c.72.92,1.45,1.9,2.16,3,0,0-13.93,10.58-25.53-1.62a3.16,3.16,0,0,1-.78,2.48c-1.3,1.35-3.66,1.09-5.81-.83V68.1H62.71Z"/><path class="cls-4" d="M92.46,56.57A32.93,32.93,0,0,1,93,63.79s-8.77.14-14.5-6.06a6.23,6.23,0,0,1-4.64-2.23c-.09-.09-.18-.2-.28-.32H71.39a8.85,8.85,0,0,1,.13,1.34c0,3.5-1.67,5.81-3.73,5.81S64.05,60,64.05,56.52a8.85,8.85,0,0,1,.13-1.34H62.71V68.1H97.14V55.18H94.55A3.26,3.26,0,0,1,92.46,56.57Z"/><polygon class="cls-5" points="44.18 68.1 28.27 68.1 9.75 68.1 9.75 80.94 44.18 80.94 44.18 68.1"/><rect class="cls-5" x="9.75" y="80.94" width="34.44" height="0.07"/><polygon class="cls-4" points="44.18 68.1 44.18 80.94 78.62 80.94 78.62 68.1 78.62 68.1 62.71 68.1 44.18 68.1"/><rect class="cls-6" x="44.18" y="80.94" width="34.44" height="0.07"/><polygon class="cls-6" points="78.62 68.1 78.62 68.1 78.62 80.94 110.06 80.94 110.06 68.1 97.14 68.1 78.62 68.1"/><rect class="cls-4" x="78.62" y="80.94" width="31.44" height="0.07"/><rect class="cls-6" x="0.06" y="80.94" width="9.68" height="0.07"/><rect class="cls-6" y="68.1" width="9.71" height="12.84"/><path class="cls-7" d="M55.09,56.87a3.51,3.51,0,0,1-.73-3.27A18.37,18.37,0,0,0,50.3,51a4.17,4.17,0,0,1-3.5-1.14,14.07,14.07,0,0,0-2.54-.27,4.77,4.77,0,0,1,0,.51c0,2.78-1.32,4.62-3,4.62s-2.73-1.56-2.92-4a5.53,5.53,0,0,1-3.9,1.76,21.33,21.33,0,0,0-2.44,1.76,8.77,8.77,0,0,1,.75.66,6.73,6.73,0,0,1,2,4.1c11.6,12.2,25.53,1.62,25.53,1.62-.71-1.11-1.44-2.09-2.16-3A3.21,3.21,0,0,1,55.09,56.87Z"/><path class="cls-7" d="M81.26,32.11a4.4,4.4,0,0,1,0,1.15c.34-.11.68-.24,1-.37C81.93,32.62,81.57,32.36,81.26,32.11Z"/><path class="cls-7" d="M78.66,47.38A36.84,36.84,0,0,1,73.78,46c0,.19,0,.38,0,.56a33,33,0,0,1,4.64,2.84A4.57,4.57,0,0,1,78.66,47.38Z"/><path class="cls-7" d="M87.7,47.13a13.8,13.8,0,0,1-1.81,2.64c-1.79,1.86-3.8,2.56-5.31,2.15,1,1.92,1,3.81-.1,4.95a2.9,2.9,0,0,1-2,.86c5.73,6.2,14.5,6.06,14.5,6.06a32.93,32.93,0,0,0-.57-7.22,2.24,2.24,0,0,1-.44.07c-2.07,0-3.75-2.33-3.75-5.84a13.21,13.21,0,0,1,.38-2.65A13.17,13.17,0,0,0,87.7,47.13Z"/><path class="cls-7" d="M10.94,54.91a15,15,0,0,1,2.84-2c.16-.41.3-.81.43-1.19a16.88,16.88,0,0,1-4.22.87c-3.25,0-5.39-1.67-5.39-3.72A3,3,0,0,1,5,47.41a18.09,18.09,0,0,0-3.31,1.07A3.77,3.77,0,0,1,0,50.08V65a16.6,16.6,0,0,0,9-4.63C8.54,58.84,9.14,56.77,10.94,54.91Z"/><path class="cls-8" d="M7.74,45.41A7.92,7.92,0,0,1,10,45.09a7.47,7.47,0,0,1,1.22.13,3.47,3.47,0,0,0,.42-.34,2.89,2.89,0,0,0,.63-1.07A9.6,9.6,0,0,1,11,42.72c-1.89-2-2.46-4.18-1.81-5.71a43.79,43.79,0,0,0-5.76-3.3A5,5,0,0,1,.91,36.28C2.17,39,3.78,42.21,5,43.51A8,8,0,0,0,7.74,45.41Z"/><path class="cls-8" d="M12.69,35.41a6.16,6.16,0,0,0,2.76-1.08,2.79,2.79,0,0,1-1.3-.77c-1.16-1.2-1.13-3.25.11-5.29a7.71,7.71,0,0,0-2.94-.54c-1.77,0-5.08,1.06-7.84,2.08a5.15,5.15,0,0,1,.34,1.81,5.21,5.21,0,0,1-.34,1.82,36.23,36.23,0,0,0,7.26,2.05A3.45,3.45,0,0,1,12.69,35.41Z"/><path class="cls-8" d="M11.53,23.69a3.74,3.74,0,0,1-2.64-3.32,3.38,3.38,0,0,1,1.53-2.74c-1.52-.47-3.56.21-5.39,2.11C3.78,21,2.17,24.22.91,27a5.06,5.06,0,0,1,2.47,2.58c2.64-1.31,5.7-3,7-4.29A9.31,9.31,0,0,0,11.53,23.69Z"/><path class="cls-8" d="M2.65,18.71c0-2.82-1.12-4.85-2.65-5.55V26.67a4.62,4.62,0,0,1,.6.19C1.6,24,2.65,20.55,2.65,18.71Z"/><path class="cls-8" d="M1.68,48.48a7.65,7.65,0,0,0,1-3.94c0-1.84-1-5.28-2-8.15-.2.07-.4.14-.6.19v13.5A3.78,3.78,0,0,0,1.68,48.48Z"/><path class="cls-9" d="M104.38,23.65c3.37,0,5.59-1.73,5.59-3.88s-2.22-3.88-5.58-3.88c-2.46,0-7.91,2.07-10.68,3.18,0,0,0,0,0,0,2.72-1.25,8-3.8,9.71-5.6,2.38-2.48,2.77-5.34,1.32-6.85s-4.22-1.11-6.6,1.36c-1.73,1.8-4.18,7.27-5.38,10.1l0,0c1.08-2.88,3.06-8.55,3.06-11.1,0-3.5-1.67-5.81-3.73-5.81s-3.73,2.31-3.73,5.81c0,2.55,2,8.22,3.06,11.1l0,0c-1.2-2.83-3.65-8.3-5.38-10.1-2.38-2.47-5.14-2.88-6.59-1.36S78.26,11,80.64,13.43c1.73,1.8,7,4.35,9.71,5.6,0,0,0,0,0,0-2.77-1.11-8.22-3.18-10.67-3.18-3.37,0-5.59,1.74-5.59,3.88s2.22,3.88,5.59,3.88c2.45,0,7.9-2.06,10.67-3.18l0,.05c-2.72,1.25-8,3.79-9.71,5.6-2.38,2.47-2.77,5.33-1.31,6.85s4.21,1.1,6.59-1.37c1.73-1.8,4.18-7.27,5.38-10.09l0,0c-1.07,2.88-3.06,8.54-3.06,11.1,0,3.49,1.67,5.8,3.73,5.8s3.73-2.31,3.73-5.8c0-2.56-2-8.22-3.06-11.1l0,0c1.2,2.82,3.65,8.29,5.38,10.09,2.38,2.47,5.14,2.88,6.6,1.37s1.06-4.38-1.32-6.85c-1.73-1.81-7-4.35-9.71-5.6l0-.05C96.48,21.59,101.93,23.65,104.38,23.65Z"/><path class="cls-10" d="M96.92,19.77A4.9,4.9,0,1,1,92,14.68,5,5,0,0,1,96.92,19.77Z"/><path class="cls-10" d="M.86,36.28a5.07,5.07,0,0,0,2.51-2.57l.11-.27a5.21,5.21,0,0,0,.34-1.82,5.15,5.15,0,0,0-.34-1.81c0-.09-.07-.19-.11-.27A5.09,5.09,0,0,0,.86,27l-.27-.1A4.06,4.06,0,0,0,0,26.67v9.91a5.8,5.8,0,0,0,.59-.19Z"/><path class="cls-11" d="M96.5,35.8c2.64-1.31,5.71-3,7-4.29,2.38-2.48,2.78-5.36,1.31-6.88s-4.23-1.11-6.62,1.37c-1.24,1.3-2.86,4.48-4.12,7.23A5,5,0,0,1,96.5,35.8Z"/><path class="cls-11" d="M80.15,39.79a7,7,0,0,1,3.92,1.06c1.13-.35,2.29-.75,3.37-1.15a5.15,5.15,0,0,1-.34-1.81,5.25,5.25,0,0,1,.34-1.82,44.91,44.91,0,0,0-6.34-1.91,7.88,7.88,0,0,1-1.93,3.16A19.34,19.34,0,0,1,75,40.17a4.32,4.32,0,0,0,.69.56A17.75,17.75,0,0,1,80.15,39.79Z"/><path class="cls-11" d="M90.27,42.65c-.61,1.79-1.23,3.8-1.62,5.5a13.21,13.21,0,0,0-.38,2.65c0,3.51,1.68,5.84,3.75,5.84a2.24,2.24,0,0,0,.44-.07,3.26,3.26,0,0,0,2.09-1.39,7.4,7.4,0,0,0,1.22-4.38c0-1.84-1-5.28-2-8.15a4.55,4.55,0,0,1-3.5,0Z"/><path class="cls-11" d="M85.74,43.67c0,2.14-2.22,3.88-5.59,3.88a8.09,8.09,0,0,1-1.49-.17,4.57,4.57,0,0,0-.19,2,7.63,7.63,0,0,1,.7.63,8.48,8.48,0,0,1,1.41,1.9c1.51.41,3.52-.29,5.31-2.15a13.8,13.8,0,0,0,1.81-2.64c.8-1.39,1.61-3.06,2.31-4.58A5,5,0,0,1,87.54,40c-.91.44-1.86.94-2.77,1.44A3.21,3.21,0,0,1,85.74,43.67Z"/><path class="cls-11" d="M87.54,35.8A5,5,0,0,1,90,33.23c-.58-1.27-1.23-2.62-1.89-3.84A17.22,17.22,0,0,0,85.89,26c-2.39-2.48-5.16-2.89-6.62-1.37-1.13,1.17-1.15,3.13,0,5.1a2.83,2.83,0,0,1,1.23.74,3,3,0,0,1,.78,1.64c.31.25.67.51,1.06.78A51,51,0,0,0,87.54,35.8Z"/><path class="cls-11" d="M94,42.55c1.26,2.74,2.88,5.93,4.12,7.22,2.39,2.49,5.16,2.89,6.62,1.37s1.07-4.39-1.31-6.88c-1.25-1.29-4.32-3-7-4.28A5,5,0,0,1,94,42.55Z"/><path class="cls-11" d="M104.44,34c-1.76,0-5.07,1.06-7.83,2.08a5.49,5.49,0,0,1,.33,1.82,5.38,5.38,0,0,1-.33,1.81c2.76,1,6.07,2.08,7.83,2.08,3.38,0,5.62-1.74,5.62-3.89S107.82,34,104.44,34Z"/><path class="cls-11" d="M88.27,25a16.48,16.48,0,0,0,.63,3.65c.38,1.46.88,3,1.37,4.49a4.55,4.55,0,0,1,3.5,0c1-2.87,2-6.31,2-8.14,0-2.64-.94-4.6-2.29-5.42A2.81,2.81,0,0,0,92,19.14C90,19.14,88.27,21.46,88.27,25Z"/><path class="cls-10" d="M90.27,33.12l-.26.11a5,5,0,0,0-2.47,2.57c0,.09-.07.18-.1.27a5.25,5.25,0,0,0-.34,1.82,5.15,5.15,0,0,0,.34,1.81,2.31,2.31,0,0,0,.1.28A5,5,0,0,0,90,42.55l.26.1a4.55,4.55,0,0,0,3.5,0l.26-.1A5,5,0,0,0,96.5,40c0-.09.07-.18.11-.28a5.38,5.38,0,0,0,.33-1.81,5.49,5.49,0,0,0-.33-1.82l-.11-.27A5,5,0,0,0,94,33.23l-.26-.11a4.55,4.55,0,0,0-3.5,0Z"/><path class="cls-11" d="M44.8,20.37c0,2-1.9,3.58-4.83,3.82a8.09,8.09,0,0,0,3.47.72c1.88,0,5.38-1.13,8.31-2.21a5.5,5.5,0,0,1,0-3.86c-2.93-1.07-6.43-2.2-8.31-2.2a8.75,8.75,0,0,0-1.82.2C43.59,17.44,44.8,18.79,44.8,20.37Z"/><path class="cls-11" d="M53,37a3.18,3.18,0,0,1,2.62,2.77,12.6,12.6,0,0,1,2.56.43,4,4,0,0,0,1-.89,13.9,13.9,0,0,1-2.76-2C54,34.85,53.63,32,55.09,30.47c1.1-1.14,2.94-1.19,4.79-.08-.39-1.49-.9-3.09-1.4-4.55a5,5,0,0,1-1.86.36,5,5,0,0,1-1.85-.36c-1,3-2.13,6.69-2.13,8.63A10.07,10.07,0,0,0,53,37Z"/><path class="cls-11" d="M44.1,28a7.23,7.23,0,0,1,.19,1.67,20.82,20.82,0,0,1-1.17,5.2,3.24,3.24,0,0,0,.31.24,21.37,21.37,0,0,1,2.75-4.63c1.89-2,4.08-2.28,5.23-1.08A2.39,2.39,0,0,1,52,30.62c.85-1.49,1.72-3.27,2.47-4.9A5.35,5.35,0,0,1,51.86,23c-2.8,1.39-6,3.17-7.37,4.55C44.35,27.69,44.23,27.84,44.1,28Z"/><path class="cls-11" d="M61.5,22.7c2.92,1.08,6.43,2.21,8.3,2.21,3.59,0,6-1.85,6-4.14s-2.37-4.13-6-4.13c-1.87,0-5.38,1.13-8.3,2.2a5.65,5.65,0,0,1,0,3.86Z"/><path class="cls-11" d="M52.64,7.07c0,1.95,1.09,5.59,2.13,8.64a5,5,0,0,1,1.85-.36,5,5,0,0,1,1.86.36c1-3,2.12-6.69,2.12-8.64,0-3.72-1.78-6.19-4-6.19S52.64,3.35,52.64,7.07Z"/><path class="cls-11" d="M58.76,25.72c1.33,2.91,3.05,6.29,4.37,7.66a9.27,9.27,0,0,0,1.62,1.34,17.09,17.09,0,0,1-.7-3.9c0-2.49.86-4.36,2.09-5.24-1.45-.89-3.17-1.8-4.76-2.59A5.33,5.33,0,0,1,58.76,25.72Z"/><path class="cls-11" d="M54.49,15.83c-1.34-2.92-3.05-6.29-4.37-7.67-2.54-2.63-5.47-3.07-7-1.45S42,11.38,44.49,14c1.32,1.38,4.57,3.16,7.37,4.55A5.31,5.31,0,0,1,54.49,15.83Z"/><path class="cls-11" d="M61.38,18.56c2.8-1.39,6.05-3.17,7.37-4.55,2.54-2.63,3-5.69,1.4-7.3s-4.49-1.18-7,1.45c-1.32,1.38-3,4.75-4.37,7.67A5.29,5.29,0,0,1,61.38,18.56Z"/><path class="cls-10" d="M54.77,15.71a1.39,1.39,0,0,0-.28.12,5.31,5.31,0,0,0-2.63,2.73c0,.09-.07.19-.11.28a5.5,5.5,0,0,0,0,3.86c0,.1.07.2.11.29a5.35,5.35,0,0,0,2.63,2.73l.28.12a5,5,0,0,0,1.85.36,5,5,0,0,0,1.86-.36l.28-.12A5.33,5.33,0,0,0,61.38,23l.12-.29a5.65,5.65,0,0,0,0-3.86l-.12-.28a5.29,5.29,0,0,0-2.62-2.73c-.09-.05-.19-.08-.28-.12a5,5,0,0,0-1.86-.36A5,5,0,0,0,54.77,15.71Z"/><path class="cls-9" d="M72.25,41.59c.89-.44,1.83-.92,2.73-1.42a19.34,19.34,0,0,0,4.19-2.85,7.88,7.88,0,0,0,1.93-3.16,6.3,6.3,0,0,0,.19-.9,4.4,4.4,0,0,0,0-1.15,3,3,0,0,0-.78-1.64,2.83,2.83,0,0,0-1.23-.74,5.11,5.11,0,0,0-4.52,1.34,9.79,9.79,0,0,0-.84.77C72.65,33.13,71,36.3,69.79,39A5,5,0,0,1,72.25,41.59Z"/><path class="cls-9" d="M59.88,30.39c-1.85-1.11-3.69-1.06-4.79.08C53.63,32,54,34.85,56.4,37.32a13.9,13.9,0,0,0,2.76,2c1.29.78,2.78,1.57,4.16,2.25A5.05,5.05,0,0,1,65.79,39c-1.26-2.73-2.87-5.9-4.11-7.19A8.37,8.37,0,0,0,59.88,30.39Z"/><path class="cls-9" d="M54.36,53.6a3.51,3.51,0,0,0,.73,3.27,3.21,3.21,0,0,0,3.14.75,7.19,7.19,0,0,0,3.45-2.12,3,3,0,0,0,.28-.32,36.84,36.84,0,0,0,3.83-6.87,5.05,5.05,0,0,1-2.47-2.56c-2.63,1.3-5.67,3-6.92,4.27A7.63,7.63,0,0,0,54.36,53.6Z"/><path class="cls-9" d="M64.05,56.52c0,3.5,1.67,5.81,3.74,5.81s3.73-2.31,3.73-5.81a8.85,8.85,0,0,0-.13-1.34,46,46,0,0,0-1.87-6.77,4.48,4.48,0,0,1-3.47,0,46,46,0,0,0-1.87,6.77A8.85,8.85,0,0,0,64.05,56.52Z"/><path class="cls-9" d="M73.89,55.5a6.23,6.23,0,0,0,4.64,2.23,2.9,2.9,0,0,0,2-.86c1.09-1.14,1.15-3,.1-4.95A8.48,8.48,0,0,0,79.17,50a7.63,7.63,0,0,0-.7-.63,33,33,0,0,0-4.64-2.84l-1.58-.8a5,5,0,0,1-2.46,2.56,36.29,36.29,0,0,0,3.82,6.87C73.71,55.3,73.8,55.41,73.89,55.5Z"/><path class="cls-9" d="M78.66,47.38a8.09,8.09,0,0,0,1.49.17c3.37,0,5.59-1.74,5.59-3.88a3.21,3.21,0,0,0-1-2.25,4,4,0,0,0-.7-.57,7,7,0,0,0-3.92-1.06,17.75,17.75,0,0,0-4.48.94c-1.11.34-2.25.74-3.32,1.13a5.13,5.13,0,0,1,0,3.62l1.43.51A36.84,36.84,0,0,0,78.66,47.38Z"/><path class="cls-9" d="M55.58,39.8s0,0,0,.07c0,1.7-1.77,3.08-4.44,3.08A7.05,7.05,0,0,1,50,42.81a2.77,2.77,0,0,0-.14.86,3.17,3.17,0,0,0,.14.87,5,5,0,0,1,.4.37,7.24,7.24,0,0,1,1.17,1.6,7,7,0,0,0,3.88,1c1.76,0,5-1.06,7.8-2.07a5.13,5.13,0,0,1,0-3.62c-1.65-.6-3.48-1.22-5.08-1.63A12.6,12.6,0,0,0,55.58,39.8Z"/><path class="cls-9" d="M64.05,30.82a17.09,17.09,0,0,0,.7,3.9c.36,1.38.84,2.85,1.3,4.21a4.48,4.48,0,0,1,3.47,0c1-2.86,2-6.28,2-8.11,0-3.5-1.67-5.81-3.73-5.81a2.79,2.79,0,0,0-1.65.57C64.91,26.46,64.05,28.33,64.05,30.82Z"/><path class="cls-10" d="M66.05,38.93l-.26.1a5.05,5.05,0,0,0-2.47,2.56c0,.09-.06.18-.1.27a5.13,5.13,0,0,0,0,3.62c0,.09.07.18.1.27a5.05,5.05,0,0,0,2.47,2.56l.26.1a4.48,4.48,0,0,0,3.47,0l.27-.1a5,5,0,0,0,2.46-2.56c0-.09.07-.18.1-.27a5.13,5.13,0,0,0,0-3.62c0-.09-.06-.18-.1-.27A5,5,0,0,0,69.79,39l-.27-.1a4.48,4.48,0,0,0-3.47,0Z"/><path class="cls-9" d="M31.25,29.39c1.16-1.2,3.35-.88,5.24,1.08a17.76,17.76,0,0,1,2.26,3.65,3.76,3.76,0,0,0,.47-.3,17.25,17.25,0,0,1-.85-4.16,7.15,7.15,0,0,1,.38-2.33c-.17-.2-.33-.41-.52-.62-1.25-1.29-4.3-3-6.93-4.27A5,5,0,0,1,28.84,25c.7,1.52,1.5,3.16,2.29,4.55C31.18,29.5,31.2,29.44,31.25,29.39Z"/><path class="cls-9" d="M31.3,18.29C33.93,17,37,15.31,38.23,14c2.38-2.47,2.77-5.34,1.31-6.85S35.33,6.06,33,8.54C31.71,9.83,30.1,13,28.84,15.73A5,5,0,0,1,31.3,18.29Z"/><path class="cls-9" d="M18.73,33.76c.58-1.71,1.69-2.77,3-2.85A48.9,48.9,0,0,0,24.85,25a5,5,0,0,1-2.47-2.56c-2.63,1.31-5.68,3-6.92,4.27a9.73,9.73,0,0,0-1.2,1.56c-1.24,2-1.27,4.09-.11,5.29a2.79,2.79,0,0,0,1.3.77A4.49,4.49,0,0,0,18.73,33.76Z"/><path class="cls-9" d="M31.41,22.17c2.74,1,6,2.07,7.8,2.07a6.33,6.33,0,0,0,.76,0c2.93-.24,4.83-1.85,4.83-3.82,0-1.58-1.21-2.93-3.18-3.53a8.15,8.15,0,0,0-2.41-.35c-1.76,0-5.06,1.06-7.8,2.07a5.1,5.1,0,0,1,0,3.61Z"/><path class="cls-9" d="M24.85,15.73C23.59,13,22,9.83,20.74,8.54c-2.38-2.48-5.13-2.89-6.59-1.37S13.08,11.55,15.46,14c1.24,1.29,4.29,3,6.92,4.27A5,5,0,0,1,24.85,15.73Z"/><path class="cls-9" d="M25.47,36.47a10.44,10.44,0,0,1-.26,2A2.82,2.82,0,0,0,26.6,39a9.91,9.91,0,0,1,1.15-1.54,7.47,7.47,0,0,1,2.51-1.78,9.26,9.26,0,0,0,.32-2.45c0-1.83-1-5.25-2-8.11a4.6,4.6,0,0,1-3.47,0,52.37,52.37,0,0,0-1.78,6.22C24.59,32.14,25.47,34,25.47,36.47Z"/><path class="cls-9" d="M28.58,15.62c1-2.85,2-6.28,2-8.11,0-3.49-1.67-5.81-3.74-5.81S23.11,4,23.11,7.51c0,1.83,1,5.26,2,8.11a4.6,4.6,0,0,1,3.47,0Z"/><path class="cls-9" d="M8.89,20.37a3.74,3.74,0,0,0,2.64,3.32,7.76,7.76,0,0,0,3,.55c1.76,0,5.05-1.06,7.8-2.07a5.09,5.09,0,0,1-.33-1.8,5.15,5.15,0,0,1,.33-1.81c-2.75-1-6-2.07-7.8-2.07a6.91,6.91,0,0,0-4.06,1.14A3.38,3.38,0,0,0,8.89,20.37Z"/><path class="cls-10" d="M22.28,22.17a2.15,2.15,0,0,0,.1.27A5,5,0,0,0,24.85,25l.26.11a4.6,4.6,0,0,0,3.47,0l.26-.11a5,5,0,0,0,2.46-2.56l.11-.27a5.1,5.1,0,0,0,0-3.61l-.11-.27a5,5,0,0,0-2.46-2.56l-.26-.11a4.6,4.6,0,0,0-3.47,0l-.26.11a5,5,0,0,0-2.47,2.56l-.1.27A5.15,5.15,0,0,0,22,20.37,5.09,5.09,0,0,0,22.28,22.17Z"/><path class="cls-11" d="M20,44.36c-1.2-2.62-2.75-5.67-3.94-6.91a6.88,6.88,0,0,0-3.33-2,3.45,3.45,0,0,0-1.95.08,2.55,2.55,0,0,0-1.05.65,2.92,2.92,0,0,0-.55.87c-.65,1.53-.08,3.74,1.81,5.71a9.6,9.6,0,0,0,1.33,1.09,45.42,45.42,0,0,0,5.32,3A4.8,4.8,0,0,1,20,44.36Z"/><path class="cls-11" d="M38.37,50.07a12.11,12.11,0,0,1,.42-2.59,3.23,3.23,0,0,0-.59-.81,12.69,12.69,0,0,1-1.71,2.59c-1.89,2-4.08,2.29-5.24,1.09s-.86-3.16.68-5a44.63,44.63,0,0,0-5.66,1.75,4.86,4.86,0,0,1,0,3.47c2.64,1,5.8,2,7.49,2,.26,0,.5,0,.75,0a5.53,5.53,0,0,0,3.9-1.76C38.39,50.51,38.37,50.3,38.37,50.07Z"/><path class="cls-11" d="M31.51,43c-2.67,0-4.44-1.38-4.44-3.08s1.77-3.08,4.44-3.08a13.28,13.28,0,0,1,3.28.66,2.83,2.83,0,0,0-.66-1.23c-.38-.24-.73-.48-1-.71a3.83,3.83,0,0,0-2.84.16,7.47,7.47,0,0,0-2.51,1.78A9.91,9.91,0,0,0,26.6,39a50.59,50.59,0,0,0-2.8,5.37,4.82,4.82,0,0,1,2.37,2.46,30.5,30.5,0,0,0,6.56-4A6.61,6.61,0,0,1,31.51,43Z"/><path class="cls-11" d="M17.6,50.81c-1.26.63-2.62,1.34-3.81,2a15,15,0,0,0-2.84,2C9.16,56.77,8.56,58.84,9,60.36a2.91,2.91,0,0,0,.65,1.13c1.4,1.46,4,1.06,6.33-1.31a23,23,0,0,0,3-5c.32-.64.63-1.29.91-1.91A4.8,4.8,0,0,1,17.6,50.81Z"/><line class="cls-12" x1="28.58" y1="68.1" x2="28.58" y2="55.18"/><path class="cls-11" d="M17.18,48.82a5,5,0,0,1,.32-1.74,39.18,39.18,0,0,0-6.27-1.86A7.47,7.47,0,0,0,10,45.09a7.92,7.92,0,0,0-2.27.32,4.49,4.49,0,0,0-2.74,2,3,3,0,0,0-.36,1.41c0,2,2.13,3.72,5.37,3.72a16.75,16.75,0,0,0,4.2-.87c1.1-.34,2.23-.73,3.29-1.12A5,5,0,0,1,17.18,48.82Z"/><path class="cls-11" d="M21.88,53.7a4.44,4.44,0,0,1-1.67-.33c-.2.59-.4,1.2-.59,1.81a24.17,24.17,0,0,0-1.32,6c0,3.36,1.6,5.58,3.58,5.58s3.59-2.22,3.59-5.58a24.63,24.63,0,0,0-1.32-6c-.2-.61-.4-1.22-.6-1.81A4.44,4.44,0,0,1,21.88,53.7Z"/><path class="cls-11" d="M34.08,61.49A3.16,3.16,0,0,0,34.86,59a6.73,6.73,0,0,0-2-4.1,8.77,8.77,0,0,0-.75-.66,38.18,38.18,0,0,0-5.9-3.44,4.82,4.82,0,0,1-2.37,2.46c.29.62.6,1.27.91,1.91a23,23,0,0,0,3,5c.17.18.34.32.52.48C30.42,62.58,32.78,62.84,34.08,61.49Z"/><path class="cls-11" d="M25.47,36.47c0-2.48-.88-4.33-2.14-5.14a2.68,2.68,0,0,0-1.45-.44l-.15,0c-1.31.08-2.42,1.14-3,2.85a8.24,8.24,0,0,0-.43,2.71c0,1.76,1,5.05,1.91,7.79a4.39,4.39,0,0,1,3.34,0,49.51,49.51,0,0,0,1.66-5.79A10.44,10.44,0,0,0,25.47,36.47Z"/><path class="cls-10" d="M26.59,48.82a5,5,0,0,0-.32-1.74c0-.09-.07-.18-.1-.26a4.82,4.82,0,0,0-2.37-2.46l-.25-.1a4.39,4.39,0,0,0-3.34,0l-.25.1a4.8,4.8,0,0,0-2.36,2.46,2,2,0,0,0-.1.26,4.86,4.86,0,0,0,0,3.47,2,2,0,0,0,.1.26A4.8,4.8,0,0,0,20,53.27l.25.1a4.39,4.39,0,0,0,3.34,0l.25-.1a4.82,4.82,0,0,0,2.37-2.46c0-.08.06-.17.1-.26A5,5,0,0,0,26.59,48.82Z"/><path class="cls-8" d="M37.79,38.22a4,4,0,0,1,2-2c-.31-.68-.64-1.39-1-2.07a17.76,17.76,0,0,0-2.26-3.65c-1.89-2-4.08-2.28-5.24-1.08-.05.05-.07.11-.12.16-1,1.24-.65,3.4,1.16,5.28a5.9,5.9,0,0,0,.81.68c.3.23.65.47,1,.71C35.23,36.91,36.56,37.61,37.79,38.22Z"/><path class="cls-8" d="M41.33,43.91A3.77,3.77,0,0,1,40,43.64c-.42,1.24-.85,2.61-1.16,3.84a12.11,12.11,0,0,0-.42,2.59c0,.23,0,.44,0,.66.19,2.4,1.42,4,2.92,4s3-1.84,3-4.62a4.77,4.77,0,0,0,0-.51,30.69,30.69,0,0,0-1.55-5.92A3.73,3.73,0,0,1,41.33,43.91Z"/><path class="cls-8" d="M45,41.3a33.94,33.94,0,0,0,5,1.51,7.05,7.05,0,0,0,1.18.14c2.67,0,4.44-1.38,4.44-3.08,0,0,0,0,0-.07A3.18,3.18,0,0,0,53,37a6.35,6.35,0,0,0-1.81-.24A23.64,23.64,0,0,0,45,38.43a4.28,4.28,0,0,1,.26,1.44A4.22,4.22,0,0,1,45,41.3Z"/><path class="cls-8" d="M42.92,43.55a25.44,25.44,0,0,0,3.26,5.71,6.53,6.53,0,0,0,.62.57A4.17,4.17,0,0,0,50.3,51a2.27,2.27,0,0,0,1.11-.62c.85-.89.9-2.35.13-3.84a7.24,7.24,0,0,0-1.17-1.6,5,5,0,0,0-.4-.37,29.47,29.47,0,0,0-5.1-3A3.94,3.94,0,0,1,42.92,43.55Z"/><path class="cls-8" d="M31.93,45.33c-1.54,1.86-1.75,3.9-.68,5s3.35.87,5.24-1.09a12.69,12.69,0,0,0,1.71-2.59c.54-1,1.07-2.09,1.54-3.12a4,4,0,0,1-2-2,23.93,23.93,0,0,0-5.5,3.39C32.16,45.05,32.05,45.19,31.93,45.33Z"/><path class="cls-8" d="M44.87,38.22a24.28,24.28,0,0,0,5.5-3.39A5,5,0,0,0,52,30.62a2.39,2.39,0,0,0-.61-1.23c-1.15-1.2-3.34-.88-5.23,1.08a21.37,21.37,0,0,0-2.75,4.63c-.18.37-.35.73-.51,1.09A3.94,3.94,0,0,1,44.87,38.22Z"/><path class="cls-8" d="M39.22,33.82c.23.77.48,1.55.73,2.28a3.77,3.77,0,0,1,1.38-.27,3.73,3.73,0,0,1,1.38.27c.14-.4.28-.82.41-1.24a20.82,20.82,0,0,0,1.17-5.2A7.23,7.23,0,0,0,44.1,28c-.41-1.81-1.49-2.94-2.77-2.94a3,3,0,0,0-2.58,2.28,7.15,7.15,0,0,0-.38,2.33A17.25,17.25,0,0,0,39.22,33.82Z"/><path class="cls-8" d="M31.51,36.79c-2.67,0-4.44,1.38-4.44,3.08S28.84,43,31.51,43a6.61,6.61,0,0,0,1.22-.15,34.38,34.38,0,0,0,5-1.5,4,4,0,0,1-.27-1.43,4,4,0,0,1,.27-1.44c-.94-.34-2-.69-2.92-1A13.28,13.28,0,0,0,31.51,36.79Z"/><path class="cls-10" d="M42.92,36.19l-.21-.09a3.73,3.73,0,0,0-1.38-.27A3.77,3.77,0,0,0,40,36.1l-.21.09a4,4,0,0,0-2,2,1.8,1.8,0,0,0-.08.21,4,4,0,0,0-.27,1.44,4,4,0,0,0,.27,1.43,1.43,1.43,0,0,0,.08.22,4,4,0,0,0,2,2l.21.09a3.77,3.77,0,0,0,1.38.27,3.73,3.73,0,0,0,1.38-.27l.21-.09a3.94,3.94,0,0,0,1.95-2L45,41.3a4.22,4.22,0,0,0,.26-1.43A4.28,4.28,0,0,0,45,38.43l-.09-.21A3.94,3.94,0,0,0,42.92,36.19Z"/><path class="cls-1" d="M106,39.23c.34-1.24.76-2.53,1.16-3.72l-.26-.11c-.53,1.15-1.12,2.38-1.72,3.52A6.63,6.63,0,0,1,106,39.23Z"/><path class="cls-1" d="M86.81,47.84A51.57,51.57,0,0,1,83.4,54.3h1.86A58.33,58.33,0,0,1,87.1,48Z"/><path class="cls-1" d="M92.22,33.34c-.38,1.4-.85,2.88-1.32,4.24l.29.12c.57-1.25,1.21-2.58,1.87-3.82A5,5,0,0,1,92.22,33.34Z"/><path class="cls-1" d="M95.82,39.5c-.65.35-1.31.68-1.94,1,0,.09.07.19.11.29l1.55-.55A6.16,6.16,0,0,1,95.82,39.5Z"/><path class="cls-1" d="M103.09,33.5l1.32-.67c0-.09-.07-.18-.1-.27l-1,.34A5.28,5.28,0,0,1,103.09,33.5Z"/><path class="cls-1" d="M108.62,49.45c-1.32-.14-2.45-1.23-3-3a8.8,8.8,0,0,1-3.09.53C100.58,47,97,45.85,94,44.75l-.11.29c2.87,1.43,6.19,3.25,7.55,4.66a7.72,7.72,0,0,1,2.32,4.6h.77A15.87,15.87,0,0,1,108.62,49.45Z"/><path class="cls-1" d="M75.49,38.53c1.92,0,5.52,1.16,8.51,2.26l.12-.29c-2.87-1.43-6.2-3.25-7.55-4.66-2.6-2.7-3-5.83-1.44-7.48s4.6-1.21,7.2,1.49c1.36,1.41,3.11,4.87,4.48,7.85l.29-.12A46.55,46.55,0,0,1,85,29.85c-4.18-2.9-7.81-8.11-7.59-17.44,0,0,15.93-2.22,18.88,14.45l.17,0a14.33,14.33,0,0,1,3.36.61,3.37,3.37,0,0,1,3,.91l0,.07,1.4.49c0-.09.06-.18.1-.27-2.64-1.31-5.7-3-7-4.28-2.39-2.49-2.79-5.36-1.32-6.89s4.23-1.11,6.62,1.38c1.25,1.29,2.86,4.48,4.12,7.22l.26-.1c-1-2.87-2-6.32-2-8.15,0-3.51,1.68-5.84,3.75-5.84a2.81,2.81,0,0,1,1.17.29V0H69.39V42.77C69.39,40.43,71.82,38.53,75.49,38.53Z"/><path class="cls-1" d="M76.57,49.7c1.35-1.41,4.68-3.23,7.55-4.66L84,44.75C81,45.85,77.41,47,75.49,47c-3.67,0-6.1-1.9-6.1-4.24V54.3h4.85A7.74,7.74,0,0,1,76.57,49.7Z"/><path class="cls-1" d="M90.9,48a58.33,58.33,0,0,1,1.84,6.34H94.6a52.91,52.91,0,0,1-3.42-6.46Z"/><path class="cls-7" d="M108.62,50.35a15.87,15.87,0,0,0-4.1,4.85c-.25.45-.49.91-.69,1.36a22.68,22.68,0,0,0-2,8.38c.67.12,1.32.2,2,.26a22.23,22.23,0,0,0,6.23-.19V50.1a2.66,2.66,0,0,1-1.17.29A2.51,2.51,0,0,1,108.62,50.35Z"/><path class="cls-8" d="M107,27.07c-1.26-2.75-2.87-5.93-4.12-7.23-2.39-2.48-5.16-2.89-6.62-1.37s-1.07,4.4,1.32,6.88c1.25,1.3,4.31,3,7,4.29A5,5,0,0,1,107,27.07Z"/><path class="cls-8" d="M105.16,18.71c0,1.84,1,5.28,2,8.15a4.67,4.67,0,0,1,1.75-.35,4.59,4.59,0,0,1,1.17.16V13.16a2.8,2.8,0,0,0-1.17-.28C106.84,12.88,105.16,15.2,105.16,18.71Z"/><path class="cls-8" d="M107.14,36.33c-.4,1.2-.82,2.49-1.16,3.72a18.78,18.78,0,0,0-.84,4.43,8.6,8.6,0,0,0,.45,2.82c.58,1.75,1.71,2.84,3,3l.27,0a2.8,2.8,0,0,0,1.17-.28V36.52a4.53,4.53,0,0,1-1.17.16A4.71,4.71,0,0,1,107.14,36.33Z"/><path class="cls-8" d="M97.58,37.82A8.58,8.58,0,0,0,96,40.2a6.27,6.27,0,0,0-.29.74,3.71,3.71,0,0,0,.6,3.76c1.47,1.52,4.23,1.11,6.62-1.37a17.77,17.77,0,0,0,2.41-3.71c.6-1.14,1.19-2.36,1.72-3.52a5.05,5.05,0,0,1-2.48-2.57l-1.31.67A25.17,25.17,0,0,0,97.58,37.82Z"/><path class="cls-8" d="M91,31.61a3.34,3.34,0,0,0,1.36,2.6,5,5,0,0,0,.84.54,7.44,7.44,0,0,0,3.41.75,26.29,26.29,0,0,0,6.9-1.74l.94-.34a5.15,5.15,0,0,1-.33-1.81,5.2,5.2,0,0,1,.33-1.82l-1.39-.5c-1-.36-2.09-.7-3.08-1a14.31,14.31,0,0,0-3.37-.61H96.4a7.31,7.31,0,0,0-3.28.77A3.59,3.59,0,0,0,91,31.61Z"/><path class="cls-10" d="M107.14,26.86l-.26.1a5.06,5.06,0,0,0-2.47,2.58,2.15,2.15,0,0,0-.1.27,5.15,5.15,0,0,0-.34,1.81,5.21,5.21,0,0,0,.34,1.82c0,.09.06.18.1.27a5,5,0,0,0,2.47,2.57l.26.11a4.71,4.71,0,0,0,1.75.35,5,5,0,0,0,1.17-.16V26.67a4.53,4.53,0,0,0-1.17-.16A4.71,4.71,0,0,0,107.14,26.86Z"/><line class="cls-12" y1="80.95" x2="110.01" y2="80.95"/><line class="cls-12" y1="68.1" x2="109.99" y2="68.1"/><line class="cls-12" x1="96.54" y1="68.1" x2="96.54" y2="55.18"/><line class="cls-12" x1="78.98" y1="81.01" x2="78.98" y2="68.1"/><line class="cls-12" x1="44.29" y1="80.31" x2="44.29" y2="67.39"/><line class="cls-12" x1="9.75" y1="81.01" x2="9.75" y2="68.1"/><line class="cls-12" x1="62.64" y1="68.1" x2="62.64" y2="55.18"/><path class="cls-1" d="M122.26,43.82a3.06,3.06,0,0,1-.63,1.07,2.73,2.73,0,0,1-.43.33,39,39,0,0,1,6.27,1.87c0-.09.07-.18.1-.26A45.88,45.88,0,0,1,122.26,43.82Z"/><path class="cls-1" d="M152.89,36.19c.17-.35.34-.72.51-1.08a3.5,3.5,0,0,1-.3-.24c-.14.42-.28.83-.41,1.24Z"/><path class="cls-1" d="M143.74,52.55c-1.69,0-4.86-1-7.5-2a2.77,2.77,0,0,1-.1.26,38.18,38.18,0,0,1,5.9,3.44,21.65,21.65,0,0,1,2.45-1.76C144.24,52.52,144,52.55,143.74,52.55Z"/><path class="cls-1" d="M129.94,44.37l.25-.1c-.94-2.75-1.92-6-1.92-7.79a8.57,8.57,0,0,1,.43-2.72,4.48,4.48,0,0,1-3.28.58,6.22,6.22,0,0,1-2.76,1.07A6.89,6.89,0,0,1,126,37.46C127.19,38.7,128.73,41.74,129.94,44.37Z"/><path class="cls-1" d="M140.23,35.68a3.74,3.74,0,0,1,2.84-.16,7.56,7.56,0,0,1-.8-.68c-1.81-1.89-2.16-4.05-1.16-5.28-.79-1.39-1.6-3-2.29-4.55l-.26.1c1,2.86,2,6.29,2,8.12A9.26,9.26,0,0,1,140.23,35.68Z"/><path class="cls-1" d="M131.86,30.9a2.74,2.74,0,0,1,1.45.44,50.55,50.55,0,0,1,1.77-6.23l-.26-.1a47.61,47.61,0,0,1-3.12,5.91Z"/><path class="cls-1" d="M168.12,40.24a52.26,52.26,0,0,1,5.08,1.63c0-.09.06-.18.1-.27-1.38-.69-2.88-1.47-4.17-2.25A3.83,3.83,0,0,1,168.12,40.24Z"/><path class="cls-1" d="M124.24,28.28a9.23,9.23,0,0,1,1.19-1.56c1.25-1.29,4.3-3,6.93-4.27l-.11-.27c-2.74,1-6,2.07-7.8,2.07a7.76,7.76,0,0,1-3-.55,8.68,8.68,0,0,1-1.19,1.55c-1.25,1.3-4.31,3-7,4.29l.11.27c2.76-1,6.07-2.08,7.84-2.08A7.74,7.74,0,0,1,124.24,28.28Z"/><path class="cls-1" d="M119.66,36.15a2.71,2.71,0,0,1,1-.66,35.41,35.41,0,0,1-7.25-2l-.11.27A44.6,44.6,0,0,1,119.12,37,2.77,2.77,0,0,1,119.66,36.15Z"/><path class="cls-1" d="M150,24.2c-.26,0-.5.05-.77.05-1.76,0-5.05-1.06-7.8-2.07,0,.09-.06.18-.1.27,2.63,1.3,5.68,3,6.92,4.27a7.57,7.57,0,0,1,.53.62,2.93,2.93,0,0,1,2.58-2.28c1.27,0,2.35,1.13,2.77,2.94.13-.15.24-.31.38-.46,1.33-1.37,4.57-3.15,7.38-4.54l-.12-.29c-2.92,1.08-6.43,2.2-8.3,2.2A8.06,8.06,0,0,1,150,24.2Z"/><path class="cls-1" d="M160.35,34.84a24.3,24.3,0,0,1-5.5,3.38c0,.08.05.15.08.22a23.78,23.78,0,0,1,6.2-1.65,6.78,6.78,0,0,1,1.81.24,9.51,9.51,0,0,1-.32-2.55c0-1.95,1.08-5.59,2.12-8.64l-.28-.11c-.75,1.63-1.61,3.4-2.46,4.9A5,5,0,0,1,160.35,34.84Z"/><path class="cls-1" d="M161.51,46.52c.77,1.49.73,2.95-.12,3.83a2.32,2.32,0,0,1-1.12.63,18.65,18.65,0,0,1,4.07,2.63,7.57,7.57,0,0,1,2-3.59c1.24-1.29,4.29-3,6.92-4.27a1.69,1.69,0,0,1-.1-.27c-2.75,1-6,2.08-7.8,2.08A7,7,0,0,1,161.51,46.52Z"/><path class="cls-1" d="M154.85,41.52a29.33,29.33,0,0,1,5.09,3,3,3,0,0,1,0-1.74,33.83,33.83,0,0,1-5-1.5Z"/><path class="cls-1" d="M171.66,31.85c1.24,1.29,2.85,4.46,4.1,7.19l.26-.11c-.46-1.35-.93-2.83-1.3-4.21a9.57,9.57,0,0,1-1.62-1.33c-1.32-1.38-3-4.75-4.37-7.66l-.28.11c.5,1.47,1,3.07,1.41,4.56A8.88,8.88,0,0,1,171.66,31.85Z"/><path class="cls-1" d="M185,40.17c-.91.5-1.84,1-2.74,1.43,0,.09.07.18.1.27,1.07-.39,2.22-.79,3.33-1.13A4.36,4.36,0,0,1,185,40.17Z"/><path class="cls-1" d="M198.63,48.16a55.36,55.36,0,0,1,1.62-5.5l-.26-.11c-.7,1.53-1.51,3.19-2.31,4.59C198,47.46,198.32,47.8,198.63,48.16Z"/><path class="cls-1" d="M183.75,46l-1.43-.52a2.15,2.15,0,0,1-.1.27l1.58.81C183.78,46.38,183.77,46.18,183.75,46Z"/><path class="cls-1" d="M200.25,33.13c-.5-1.45-1-3-1.38-4.5-.25.27-.51.52-.78.76.66,1.23,1.32,2.58,1.9,3.85Z"/><path class="cls-1" d="M117.71,45.41a7.7,7.7,0,0,1-2.7-1.9c-1.25-1.29-2.87-4.48-4.13-7.22l-.26.11c1,2.86,2,6.31,2,8.14a7.87,7.87,0,0,1-.94,4,17,17,0,0,1,3.3-1.07A4.44,4.44,0,0,1,117.71,45.41Z"/><path class="cls-1" d="M197.51,35.81a50,50,0,0,1-5.21-2.92c-.35.14-.7.26-1,.37a5.09,5.09,0,0,1-.19.91,41.72,41.72,0,0,1,6.34,1.91A2.15,2.15,0,0,1,197.51,35.81Z"/><path class="cls-1" d="M152.89,43.56l-.2.08a31.44,31.44,0,0,1,1.55,5.92,16,16,0,0,1,2.53.27,7.84,7.84,0,0,1-.62-.56A26.07,26.07,0,0,1,152.89,43.56Z"/><path class="cls-1" d="M183.58,55.19a36.65,36.65,0,0,1-3.82-6.88l-.26.11a45.87,45.87,0,0,1,1.86,6.77Z"/><path class="cls-1" d="M148.76,47.48c.31-1.23.74-2.6,1.17-3.84l-.21-.08c-.47,1-1,2.12-1.54,3.11A3.18,3.18,0,0,1,148.76,47.48Z"/><path class="cls-1" d="M144.77,37.46c1,.29,2,.63,2.91,1,0-.07,0-.15.08-.22a40.86,40.86,0,0,1-3.65-2A3,3,0,0,1,144.77,37.46Z"/><path class="cls-1" d="M142.27,44.91a24,24,0,0,1,5.49-3.38c0-.08,0-.15-.08-.22a34.28,34.28,0,0,1-5,1.5,30.36,30.36,0,0,1-6.57,4,2,2,0,0,1,.1.26,42.73,42.73,0,0,1,5.67-1.75C142,45.2,142.13,45.05,142.27,44.91Z"/><path class="cls-1" d="M149.93,36.11c-.26-.74-.51-1.52-.74-2.29a2.59,2.59,0,0,1-.46.3c.34.69.68,1.4,1,2.07Z"/><path class="cls-1" d="M135.19,38.48a52.14,52.14,0,0,1-1.66,5.79l.25.1a47.14,47.14,0,0,1,2.8-5.37A2.85,2.85,0,0,1,135.19,38.48Z"/><path class="cls-1" d="M172.68,55.19h1.48A45.87,45.87,0,0,1,176,48.42l-.26-.11a36.08,36.08,0,0,1-3.83,6.88Z"/><path class="cls-1" d="M194.74,41.43c.92-.51,1.87-1,2.77-1.45,0-.09-.07-.18-.1-.27-1.08.4-2.24.8-3.36,1.15A3.88,3.88,0,0,1,194.74,41.43Z"/><path class="cls-1" d="M129.94,53.28c-.29.62-.6,1.27-.91,1.91h.56c.19-.62.4-1.23.6-1.81Z"/><path class="cls-1" d="M214.42,41.79c-1.77,0-5.08-1.06-7.84-2.08l-.1.27c2.64,1.31,5.7,3,7,4.29,2.39,2.48,2.78,5.36,1.32,6.88s-4.23,1.11-6.62-1.37c-1.25-1.3-2.87-4.48-4.13-7.23l-.26.11c1,2.87,2,6.31,2,8.15a7.42,7.42,0,0,1-1.22,4.38H220V37.89C220,40.05,217.8,41.79,214.42,41.79Z"/><polygon class="cls-1" points="188.59 81.02 188.59 81.02 154.16 81.02 119.72 81.02 110.04 81.02 110.04 81.94 220.03 81.94 220.03 81.02 188.59 81.02 188.59 81.02"/><path class="cls-1" d="M133.53,53.38c.2.58.4,1.19.59,1.81h.57c-.32-.64-.63-1.29-.91-1.91Z"/><path class="cls-1" d="M112.62,18.72c0,1.83-1,5.27-2,8.14l.26.11c1.26-2.75,2.88-5.93,4.13-7.23,1.82-1.9,3.87-2.57,5.39-2.11a6.92,6.92,0,0,1,4-1.14c1.76,0,5.06,1.06,7.8,2.08,0-.1.07-.19.11-.28-2.63-1.3-5.68-3-6.93-4.26-2.37-2.48-2.76-5.34-1.31-6.85s4.21-1.11,6.59,1.36c1.25,1.29,2.85,4.46,4.11,7.2l.26-.11c-1-2.86-2-6.28-2-8.11,0-3.5,1.67-5.81,3.73-5.81s3.73,2.31,3.73,5.81c0,1.83-1,5.25-2,8.11l.26.11c1.25-2.74,2.86-5.91,4.1-7.2,2.38-2.47,5.14-2.88,6.59-1.36s1.07,4.37-1.31,6.85c-1.24,1.29-4.29,3-6.92,4.27a1.69,1.69,0,0,1,.1.27c2.75-1,6-2.08,7.8-2.08a8.1,8.1,0,0,1,2.41.35,9.52,9.52,0,0,1,1.83-.19c1.87,0,5.38,1.12,8.3,2.2l.12-.29c-2.81-1.39-6.05-3.17-7.38-4.54-2.53-2.64-3-5.69-1.39-7.3s4.49-1.18,7,1.45c1.32,1.38,3,4.75,4.37,7.66l.28-.12c-1-3-2.12-6.68-2.12-8.63,0-3.73,1.78-6.19,4-6.19H110V13.17C111.53,13.87,112.62,15.9,112.62,18.72Z"/><path class="cls-1" d="M127.47,50.56c-1,.39-2.19.78-3.28,1.12-.13.38-.27.78-.43,1.19,1.2-.72,2.55-1.43,3.81-2A2.77,2.77,0,0,0,127.47,50.56Z"/><path class="cls-1" d="M166.6.89c2.19,0,4,2.46,4,6.19,0,1.95-1.08,5.59-2.12,8.63l.28.12c1.34-2.91,3.05-6.28,4.37-7.66,2.54-2.63,5.48-3.07,7-1.46s1.13,4.67-1.4,7.31c-1.33,1.37-4.57,3.15-7.37,4.54l.11.29c2.93-1.08,6.43-2.2,8.31-2.2,3.58,0,5.95,1.85,5.95,4.13s-2.37,4.13-5.95,4.13c-1.88,0-5.38-1.12-8.31-2.2l-.11.29c1.58.78,3.31,1.69,4.75,2.59a2.8,2.8,0,0,1,1.65-.58c2.06,0,3.73,2.32,3.73,5.81,0,1.83-1,5.26-2,8.11l.26.11c1.25-2.73,2.86-5.9,4.1-7.19a9.79,9.79,0,0,1,.84-.77C186,10.79,204,13.3,204,13.3a28.65,28.65,0,0,1-.52,6.26c1.34.82,2.28,2.79,2.28,5.42,0,1.84-1,5.28-2,8.15l.26.1c1.26-2.74,2.88-5.92,4.13-7.22,2.39-2.49,5.15-2.9,6.62-1.37s1.07,4.4-1.32,6.88c-1.25,1.3-4.31,3-7,4.29l.1.27c2.76-1,6.07-2.08,7.84-2.08,3.38,0,5.61,1.74,5.61,3.89V.89Z"/><rect class="cls-2" x="207.13" y="55.19" width="12.91" height="12.92"/><path class="cls-2" d="M138.24,68.1V60.66c-.17-.15-.35-.3-.52-.47a23,23,0,0,1-3-5h-.57a24.63,24.63,0,0,1,1.32,6c0,3.35-1.6,5.58-3.58,5.58s-3.59-2.23-3.59-5.58a24.63,24.63,0,0,1,1.32-6H129a23,23,0,0,1-3,5c-2.28,2.37-4.93,2.76-6.33,1.31a2.89,2.89,0,0,1-.64-1.13A16.54,16.54,0,0,1,110,65v3.1h28.2Z"/><path class="cls-3" d="M172.68,68.1V55.19h-.75l-.27.32a7.21,7.21,0,0,1-3.46,2.12,36.68,36.68,0,0,1,2.17,3S156.44,71.21,144.84,59a3.18,3.18,0,0,1-.79,2.48c-1.29,1.34-3.65,1.09-5.81-.84V68.1h34.44Z"/><path class="cls-4" d="M202.43,56.58A32.32,32.32,0,0,1,203,63.8s-8.76.14-14.5-6.06a6.24,6.24,0,0,1-4.64-2.23l-.28-.32h-2.22a8.85,8.85,0,0,1,.13,1.34c0,3.5-1.67,5.81-3.73,5.81S174,60,174,56.53a8.85,8.85,0,0,1,.13-1.34h-1.48V68.1h34.44V55.19h-2.6A3.21,3.21,0,0,1,202.43,56.58Z"/><polygon class="cls-5" points="154.16 68.1 138.24 68.1 119.72 68.1 119.72 80.94 154.16 80.94 154.16 68.1"/><rect class="cls-5" x="119.72" y="80.94" width="34.44" height="0.07"/><polygon class="cls-4" points="154.16 68.1 154.16 80.94 188.59 80.94 188.59 68.1 188.59 68.1 172.68 68.1 154.16 68.1"/><rect class="cls-6" x="154.16" y="80.94" width="34.44" height="0.07"/><polygon class="cls-6" points="188.61 68.1 188.61 68.1 188.61 80.94 220.05 80.94 220.05 68.1 207.13 68.1 188.61 68.1"/><rect class="cls-4" x="188.59" y="80.94" width="31.44" height="0.07"/><rect class="cls-6" x="110.04" y="80.94" width="9.68" height="0.07"/><rect class="cls-6" x="110.04" y="68.1" width="9.68" height="12.84"/><path class="cls-7" d="M165.07,56.87a3.49,3.49,0,0,1-.73-3.26A18.65,18.65,0,0,0,160.27,51a4.16,4.16,0,0,1-3.5-1.15,16,16,0,0,0-2.53-.27,5,5,0,0,1,0,.52c0,2.78-1.33,4.61-3,4.61s-2.73-1.56-2.93-4a5.51,5.51,0,0,1-3.89,1.77A21.65,21.65,0,0,0,142,54.26a6.39,6.39,0,0,1,.75.66,6.78,6.78,0,0,1,2.05,4.1c11.6,12.19,25.53,1.62,25.53,1.62a36.68,36.68,0,0,0-2.17-3A3.16,3.16,0,0,1,165.07,56.87Z"/><path class="cls-7" d="M191.24,32.12a3.93,3.93,0,0,1,0,1.14c.34-.11.69-.23,1-.37A12.75,12.75,0,0,1,191.24,32.12Z"/><path class="cls-7" d="M188.64,47.39A36.53,36.53,0,0,1,183.75,46c0,.18,0,.38.05.56a31.51,31.51,0,0,1,4.64,2.84A4.74,4.74,0,0,1,188.64,47.39Z"/><path class="cls-7" d="M197.68,47.14a14.1,14.1,0,0,1-1.82,2.64c-1.79,1.86-3.79,2.56-5.3,2.15,1,1.91,1,3.81-.1,4.94a2.91,2.91,0,0,1-2,.87c5.74,6.2,14.5,6.06,14.5,6.06a32.32,32.32,0,0,0-.57-7.22,3,3,0,0,1-.43.06c-2.08,0-3.75-2.32-3.75-5.83a12.43,12.43,0,0,1,.38-2.65C198.32,47.8,198,47.46,197.68,47.14Z"/><path class="cls-7" d="M120.92,54.92a14.15,14.15,0,0,1,2.84-2.05c.16-.41.3-.81.43-1.19a16.9,16.9,0,0,1-4.21.87c-3.23,0-5.37-1.67-5.37-3.73a2.84,2.84,0,0,1,.37-1.4,17,17,0,0,0-3.3,1.07,3.86,3.86,0,0,1-1.64,1.6V65a16.54,16.54,0,0,0,9-4.63C118.53,58.85,119.14,56.77,120.92,54.92Z"/><path class="cls-8" d="M117.71,45.41A7.94,7.94,0,0,1,120,45.1a7.16,7.16,0,0,1,1.22.12,2.73,2.73,0,0,0,.43-.33,3.06,3.06,0,0,0,.63-1.07,9.18,9.18,0,0,1-1.34-1.09c-1.89-2-2.45-4.18-1.8-5.72a44.6,44.6,0,0,0-5.77-3.29,5,5,0,0,1-2.47,2.57c1.26,2.74,2.88,5.93,4.13,7.22A7.7,7.7,0,0,0,117.71,45.41Z"/><path class="cls-8" d="M122.66,35.41a6.22,6.22,0,0,0,2.76-1.07,3,3,0,0,1-1.3-.77c-1.15-1.2-1.13-3.26.12-5.29a7.74,7.74,0,0,0-2.94-.55c-1.77,0-5.08,1.07-7.84,2.08a5.18,5.18,0,0,1,0,3.64,35.41,35.41,0,0,0,7.25,2A3.45,3.45,0,0,1,122.66,35.41Z"/><path class="cls-8" d="M121.5,23.7a3.75,3.75,0,0,1-2.63-3.33,3.36,3.36,0,0,1,1.53-2.74c-1.52-.46-3.57.21-5.39,2.11-1.25,1.3-2.87,4.48-4.13,7.23a5,5,0,0,1,2.47,2.57c2.65-1.31,5.71-3,7-4.29A8.68,8.68,0,0,0,121.5,23.7Z"/><path class="cls-8" d="M112.62,18.72c0-2.82-1.09-4.85-2.58-5.55V26.68a5.58,5.58,0,0,1,.58.18C111.6,24,112.62,20.55,112.62,18.72Z"/><path class="cls-8" d="M111.68,48.49a7.87,7.87,0,0,0,.94-4c0-1.83-1-5.28-2-8.14a5.58,5.58,0,0,1-.58.18V50.09A3.86,3.86,0,0,0,111.68,48.49Z"/><path class="cls-9" d="M214.36,23.66c3.36,0,5.59-1.74,5.59-3.88s-2.23-3.88-5.59-3.88c-2.46,0-7.91,2.06-10.68,3.18l0,0c2.72-1.25,8-3.79,9.72-5.6,2.38-2.47,2.77-5.33,1.31-6.85S210.48,5.47,208.1,8c-1.74,1.8-4.19,7.27-5.39,10.09l0,0c1.07-2.88,3.05-8.54,3.05-11.09,0-3.5-1.67-5.81-3.73-5.81s-3.73,2.31-3.73,5.81c0,2.55,2,8.21,3.06,11.09l0,0c-1.21-2.82-3.66-8.29-5.39-10.09-2.38-2.48-5.13-2.88-6.59-1.37s-1.07,4.38,1.31,6.85c1.74,1.81,7,4.35,9.71,5.6,0,0,0,0,0,0-2.77-1.12-8.23-3.18-10.68-3.18-3.36,0-5.59,1.74-5.59,3.88s2.23,3.88,5.59,3.88c2.45,0,7.91-2.07,10.68-3.18v0c-2.71,1.25-8,3.8-9.71,5.6-2.38,2.48-2.77,5.34-1.31,6.85s4.21,1.11,6.59-1.36c1.73-1.8,4.18-7.27,5.39-10.1l0,0c-1.07,2.88-3.06,8.55-3.06,11.1,0,3.5,1.67,5.81,3.73,5.81s3.73-2.31,3.73-5.81c0-2.55-2-8.22-3.05-11.1l0,0c1.2,2.83,3.65,8.3,5.39,10.1,2.38,2.47,5.13,2.88,6.59,1.36s1.07-4.37-1.31-6.85c-1.74-1.8-7-4.35-9.72-5.6,0,0,0,0,0,0C206.45,21.59,211.9,23.66,214.36,23.66Z"/><path class="cls-10" d="M206.89,19.78a4.9,4.9,0,1,1-4.9-5.09A5,5,0,0,1,206.89,19.78Z"/><path class="cls-10" d="M110.88,36.29a5,5,0,0,0,2.47-2.57l.11-.27a5.18,5.18,0,0,0,0-3.64l-.11-.27A5,5,0,0,0,110.88,27l-.26-.11a5.58,5.58,0,0,0-.58-.18v9.9a5.58,5.58,0,0,0,.58-.18Z"/><path class="cls-11" d="M206.48,35.81c2.64-1.31,5.7-3,7-4.29,2.39-2.48,2.78-5.36,1.32-6.88s-4.23-1.12-6.62,1.37c-1.25,1.3-2.87,4.48-4.13,7.22A5.07,5.07,0,0,1,206.48,35.81Z"/><path class="cls-11" d="M190.13,39.8a6.94,6.94,0,0,1,3.92,1.06c1.12-.35,2.28-.75,3.36-1.15a5.2,5.2,0,0,1-.33-1.82,5.15,5.15,0,0,1,.33-1.81,41.72,41.72,0,0,0-6.34-1.91,7.88,7.88,0,0,1-1.93,3.16A19.88,19.88,0,0,1,185,40.17a4.36,4.36,0,0,0,.69.57A17.66,17.66,0,0,1,190.13,39.8Z"/><path class="cls-11" d="M200.25,42.66a55.36,55.36,0,0,0-1.62,5.5,12.43,12.43,0,0,0-.38,2.65c0,3.51,1.67,5.83,3.75,5.83a3,3,0,0,0,.43-.06,3.21,3.21,0,0,0,2.09-1.39,7.42,7.42,0,0,0,1.22-4.38c0-1.84-1-5.28-2-8.15a4.53,4.53,0,0,1-3.49,0Z"/><path class="cls-11" d="M195.71,43.68c0,2.14-2.22,3.88-5.59,3.88a9,9,0,0,1-1.48-.17,4.74,4.74,0,0,0-.2,2,6.39,6.39,0,0,1,.7.62,8.91,8.91,0,0,1,1.42,1.91c1.51.41,3.51-.29,5.3-2.15a14.1,14.1,0,0,0,1.82-2.64c.8-1.4,1.61-3.06,2.31-4.59A5.05,5.05,0,0,1,197.51,40c-.9.45-1.85.94-2.77,1.45A3.19,3.19,0,0,1,195.71,43.68Z"/><path class="cls-11" d="M197.51,35.81A5,5,0,0,1,200,33.24c-.58-1.27-1.24-2.62-1.9-3.85A17,17,0,0,0,195.86,26c-2.39-2.49-5.15-2.9-6.62-1.37-1.12,1.16-1.14,3.13,0,5.1a2.82,2.82,0,0,1,1.24.74,3.11,3.11,0,0,1,.78,1.64,12.75,12.75,0,0,0,1.06.77A50,50,0,0,0,197.51,35.81Z"/><path class="cls-11" d="M204,42.55c1.26,2.75,2.88,5.93,4.13,7.23,2.39,2.48,5.15,2.89,6.62,1.37s1.07-4.4-1.32-6.88c-1.25-1.3-4.31-3-7-4.29A5.05,5.05,0,0,1,204,42.55Z"/><path class="cls-11" d="M214.42,34c-1.77,0-5.08,1.06-7.84,2.08a5.15,5.15,0,0,1,.33,1.81,5.2,5.2,0,0,1-.33,1.82c2.76,1,6.07,2.08,7.84,2.08,3.38,0,5.61-1.74,5.61-3.9S217.8,34,214.42,34Z"/><path class="cls-11" d="M198.25,25a16.28,16.28,0,0,0,.62,3.65c.38,1.46.88,3.05,1.38,4.5a4.53,4.53,0,0,1,3.49,0c1-2.87,2-6.31,2-8.15,0-2.63-.94-4.6-2.28-5.42a2.83,2.83,0,0,0-1.46-.41C199.92,19.15,198.25,21.47,198.25,25Z"/><path class="cls-10" d="M200.25,33.13l-.26.11a5,5,0,0,0-2.48,2.57,2.15,2.15,0,0,0-.1.27,5.15,5.15,0,0,0-.33,1.81,5.2,5.2,0,0,0,.33,1.82c0,.09.06.18.1.27A5.05,5.05,0,0,0,200,42.55l.26.11a4.53,4.53,0,0,0,3.49,0l.26-.11A5.05,5.05,0,0,0,206.48,40l.1-.27a5.2,5.2,0,0,0,.33-1.82,5.15,5.15,0,0,0-.33-1.81l-.1-.27A5.07,5.07,0,0,0,204,33.23l-.26-.1a4.53,4.53,0,0,0-3.49,0Z"/><path class="cls-11" d="M154.77,20.37c0,2-1.9,3.59-4.82,3.83a8.06,8.06,0,0,0,3.47.71c1.87,0,5.38-1.12,8.3-2.2a5.65,5.65,0,0,1,0-3.86c-2.92-1.08-6.43-2.2-8.3-2.2a9.52,9.52,0,0,0-1.83.19C153.56,17.45,154.77,18.8,154.77,20.37Z"/><path class="cls-11" d="M162.94,37a3.17,3.17,0,0,1,2.61,2.78,12.68,12.68,0,0,1,2.57.43,3.83,3.83,0,0,0,1-.89,15,15,0,0,1-2.75-2c-2.38-2.47-2.77-5.34-1.31-6.85,1.09-1.14,2.93-1.19,4.79-.08-.4-1.49-.91-3.09-1.41-4.56a5,5,0,0,1-1.85.36,5,5,0,0,1-1.86-.36c-1,3.05-2.12,6.69-2.12,8.64A9.51,9.51,0,0,0,162.94,37Z"/><path class="cls-11" d="M154.08,28a7.82,7.82,0,0,1,.19,1.67,21.37,21.37,0,0,1-1.17,5.2,3.5,3.5,0,0,0,.3.24,21.37,21.37,0,0,1,2.75-4.63c1.89-2,4.08-2.29,5.24-1.08a2.43,2.43,0,0,1,.61,1.23c.85-1.5,1.71-3.27,2.46-4.9A5.37,5.37,0,0,1,161.84,23c-2.81,1.39-6.05,3.17-7.38,4.54C154.32,27.69,154.21,27.85,154.08,28Z"/><path class="cls-11" d="M171.47,22.71c2.93,1.08,6.43,2.2,8.31,2.2,3.58,0,5.95-1.85,5.95-4.13s-2.37-4.13-5.95-4.13c-1.88,0-5.38,1.12-8.31,2.2a5.5,5.5,0,0,1,0,3.86Z"/><path class="cls-11" d="M162.62,7.08c0,1.95,1.08,5.59,2.12,8.63a5,5,0,0,1,1.86-.36,5,5,0,0,1,1.85.36c1-3,2.12-6.68,2.12-8.63,0-3.73-1.78-6.19-4-6.19S162.62,3.35,162.62,7.08Z"/><path class="cls-11" d="M168.73,25.73c1.34,2.91,3.05,6.28,4.37,7.66a9.57,9.57,0,0,0,1.62,1.33,16.9,16.9,0,0,1-.69-3.9c0-2.48.85-4.35,2.08-5.23-1.44-.9-3.17-1.81-4.75-2.59A5.39,5.39,0,0,1,168.73,25.73Z"/><path class="cls-11" d="M164.46,15.83c-1.33-2.91-3.05-6.28-4.37-7.66-2.53-2.63-5.47-3.07-7-1.45s-1.14,4.66,1.39,7.3c1.33,1.37,4.57,3.15,7.38,4.54A5.37,5.37,0,0,1,164.46,15.83Z"/><path class="cls-11" d="M171.36,18.56c2.8-1.39,6-3.17,7.37-4.54,2.53-2.64,3-5.69,1.4-7.31s-4.49-1.17-7,1.46c-1.32,1.38-3,4.75-4.37,7.66A5.39,5.39,0,0,1,171.36,18.56Z"/><path class="cls-10" d="M164.74,15.71l-.28.12a5.37,5.37,0,0,0-2.62,2.73l-.12.29a5.65,5.65,0,0,0,0,3.86l.12.29a5.37,5.37,0,0,0,2.62,2.73l.28.11a5,5,0,0,0,1.86.36,5,5,0,0,0,1.85-.36l.28-.11A5.39,5.39,0,0,0,171.36,23l.11-.29a5.5,5.5,0,0,0,0-3.86l-.11-.29a5.39,5.39,0,0,0-2.63-2.73l-.28-.12a5,5,0,0,0-1.85-.36A5,5,0,0,0,164.74,15.71Z"/><path class="cls-9" d="M182.22,41.6c.9-.44,1.83-.93,2.74-1.43a19.88,19.88,0,0,0,4.18-2.84,7.88,7.88,0,0,0,1.93-3.16,5.09,5.09,0,0,0,.19-.91,3.93,3.93,0,0,0,0-1.14,3.11,3.11,0,0,0-.78-1.64,2.82,2.82,0,0,0-1.24-.74,5.06,5.06,0,0,0-4.52,1.34,9.79,9.79,0,0,0-.84.77c-1.24,1.29-2.85,4.46-4.1,7.19A5,5,0,0,1,182.22,41.6Z"/><path class="cls-9" d="M169.86,30.4c-1.86-1.11-3.7-1.06-4.79.08-1.46,1.51-1.07,4.38,1.31,6.85a15,15,0,0,0,2.75,2c1.29.78,2.79,1.56,4.17,2.25A5,5,0,0,1,175.76,39c-1.25-2.73-2.86-5.9-4.1-7.19A8.88,8.88,0,0,0,169.86,30.4Z"/><path class="cls-9" d="M164.34,53.61a3.49,3.49,0,0,0,.73,3.26,3.16,3.16,0,0,0,3.13.76,7.21,7.21,0,0,0,3.46-2.12l.27-.32a36.08,36.08,0,0,0,3.83-6.88,5,5,0,0,1-2.46-2.56c-2.63,1.31-5.68,3-6.92,4.27A7.57,7.57,0,0,0,164.34,53.61Z"/><path class="cls-9" d="M174,56.53c0,3.5,1.67,5.81,3.73,5.81s3.73-2.31,3.73-5.81a8.85,8.85,0,0,0-.13-1.34,45.87,45.87,0,0,0-1.86-6.77,4.5,4.5,0,0,1-3.48,0,45.87,45.87,0,0,0-1.86,6.77A8.85,8.85,0,0,0,174,56.53Z"/><path class="cls-9" d="M183.86,55.51a6.24,6.24,0,0,0,4.64,2.23,2.91,2.91,0,0,0,2-.87c1.09-1.13,1.14-3,.1-4.94A8.91,8.91,0,0,0,189.14,50a6.39,6.39,0,0,0-.7-.62,31.51,31.51,0,0,0-4.64-2.84l-1.58-.81a5,5,0,0,1-2.46,2.56,36.65,36.65,0,0,0,3.82,6.88Z"/><path class="cls-9" d="M188.64,47.39a9,9,0,0,0,1.48.17c3.37,0,5.59-1.74,5.59-3.88a3.19,3.19,0,0,0-1-2.25,3.88,3.88,0,0,0-.69-.57,6.94,6.94,0,0,0-3.92-1.06,17.66,17.66,0,0,0-4.48.94c-1.11.34-2.26.74-3.33,1.13a5.15,5.15,0,0,1,.34,1.81,5.1,5.1,0,0,1-.34,1.8l1.43.52A36.53,36.53,0,0,0,188.64,47.39Z"/><path class="cls-9" d="M165.55,39.81s0,0,0,.06c0,1.71-1.76,3.08-4.44,3.08a7.17,7.17,0,0,1-1.18-.14,3,3,0,0,0,0,1.74c.15.12.29.25.41.36a7.14,7.14,0,0,1,1.16,1.61,7,7,0,0,0,3.89,1c1.75,0,5-1.06,7.8-2.08a5.1,5.1,0,0,1-.34-1.8,5.15,5.15,0,0,1,.34-1.81,52.26,52.26,0,0,0-5.08-1.63A12.68,12.68,0,0,0,165.55,39.81Z"/><path class="cls-9" d="M174,30.82a16.9,16.9,0,0,0,.69,3.9c.37,1.38.84,2.86,1.3,4.21a4.62,4.62,0,0,1,3.48,0c1-2.85,2-6.28,2-8.11,0-3.49-1.67-5.81-3.73-5.81a2.8,2.8,0,0,0-1.65.58C174.88,26.47,174,28.34,174,30.82Z"/><path class="cls-10" d="M176,38.93l-.26.11a5,5,0,0,0-2.46,2.56c0,.09-.07.18-.1.27a5.15,5.15,0,0,0-.34,1.81,5.1,5.1,0,0,0,.34,1.8,1.69,1.69,0,0,0,.1.27,5,5,0,0,0,2.46,2.56l.26.11a4.5,4.5,0,0,0,3.48,0l.26-.11a5,5,0,0,0,2.46-2.56,2.15,2.15,0,0,0,.1-.27,5.1,5.1,0,0,0,.34-1.8,5.15,5.15,0,0,0-.34-1.81c0-.09-.06-.18-.1-.27A5,5,0,0,0,179.76,39l-.26-.11a4.62,4.62,0,0,0-3.48,0Z"/><path class="cls-9" d="M141.23,29.4c1.15-1.21,3.34-.88,5.23,1.08a17.19,17.19,0,0,1,2.27,3.64,2.59,2.59,0,0,0,.46-.3,17.19,17.19,0,0,1-.85-4.15,6.8,6.8,0,0,1,.39-2.33,7.57,7.57,0,0,0-.53-.62c-1.24-1.29-4.29-3-6.92-4.27A5,5,0,0,1,138.82,25c.69,1.51,1.5,3.16,2.29,4.55A1.67,1.67,0,0,1,141.23,29.4Z"/><path class="cls-9" d="M141.28,18.3c2.63-1.31,5.68-3,6.92-4.27,2.38-2.48,2.77-5.34,1.31-6.85s-4.21-1.11-6.59,1.36c-1.24,1.29-2.85,4.46-4.1,7.2A5,5,0,0,1,141.28,18.3Z"/><path class="cls-9" d="M128.7,33.76c.58-1.71,1.69-2.76,3-2.84A47.61,47.61,0,0,0,134.82,25a5,5,0,0,1-2.46-2.56c-2.63,1.3-5.68,3-6.93,4.27a9.23,9.23,0,0,0-1.19,1.56c-1.25,2-1.27,4.09-.12,5.29a3,3,0,0,0,1.3.77A4.48,4.48,0,0,0,128.7,33.76Z"/><path class="cls-9" d="M141.38,22.18c2.75,1,6,2.07,7.8,2.07.27,0,.51,0,.77-.05,2.92-.24,4.82-1.86,4.82-3.83,0-1.57-1.21-2.92-3.18-3.53a8.1,8.1,0,0,0-2.41-.35c-1.76,0-5.05,1.06-7.8,2.08a5.09,5.09,0,0,1,.33,1.8A5.15,5.15,0,0,1,141.38,22.18Z"/><path class="cls-9" d="M134.82,15.74c-1.26-2.74-2.86-5.91-4.11-7.2-2.38-2.47-5.13-2.88-6.59-1.36s-1.06,4.37,1.31,6.85c1.25,1.29,4.3,3,6.93,4.26A5,5,0,0,1,134.82,15.74Z"/><path class="cls-9" d="M135.44,36.48a11.18,11.18,0,0,1-.25,2,2.85,2.85,0,0,0,1.39.52,10.62,10.62,0,0,1,1.14-1.54,7.67,7.67,0,0,1,2.51-1.78,9.26,9.26,0,0,0,.32-2.45c0-1.83-1-5.26-2-8.12a4.5,4.5,0,0,1-3.48,0,50.55,50.55,0,0,0-1.77,6.23C134.56,32.14,135.44,34,135.44,36.48Z"/><path class="cls-9" d="M138.56,15.63c1-2.86,2-6.28,2-8.11,0-3.5-1.67-5.81-3.73-5.81S133.09,4,133.09,7.52c0,1.83,1,5.25,2,8.11a4.5,4.5,0,0,1,3.48,0Z"/><path class="cls-9" d="M118.87,20.37a3.75,3.75,0,0,0,2.63,3.33,7.76,7.76,0,0,0,3,.55c1.76,0,5.06-1.06,7.8-2.07a5.38,5.38,0,0,1-.33-1.81,5.32,5.32,0,0,1,.33-1.8c-2.74-1-6-2.08-7.8-2.08a6.92,6.92,0,0,0-4,1.14A3.36,3.36,0,0,0,118.87,20.37Z"/><path class="cls-10" d="M132.25,22.18l.11.27A5,5,0,0,0,134.82,25l.26.1a4.5,4.5,0,0,0,3.48,0l.26-.1a5,5,0,0,0,2.46-2.56c0-.09.07-.18.1-.27a5.15,5.15,0,0,0,.33-1.81,5.09,5.09,0,0,0-.33-1.8,1.69,1.69,0,0,0-.1-.27,5,5,0,0,0-2.46-2.56l-.26-.11a4.5,4.5,0,0,0-3.48,0l-.26.11a5,5,0,0,0-2.46,2.55c0,.09-.07.18-.11.28a5.32,5.32,0,0,0-.33,1.8A5.38,5.38,0,0,0,132.25,22.18Z"/><path class="cls-11" d="M129.94,44.37c-1.21-2.63-2.75-5.67-4-6.91a6.89,6.89,0,0,0-3.33-2.05,3.45,3.45,0,0,0-2,.08,2.71,2.71,0,0,0-1,.66,2.77,2.77,0,0,0-.54.86c-.65,1.54-.09,3.75,1.8,5.72a9.18,9.18,0,0,0,1.34,1.09,45.88,45.88,0,0,0,5.31,3A4.78,4.78,0,0,1,129.94,44.37Z"/><path class="cls-11" d="M148.34,50.08a12.09,12.09,0,0,1,.42-2.6,3.18,3.18,0,0,0-.58-.81,13.22,13.22,0,0,1-1.72,2.6c-1.89,2-4.08,2.28-5.23,1.08s-.87-3.15.68-5a42.73,42.73,0,0,0-5.67,1.75,4.86,4.86,0,0,1,0,3.47c2.64,1,5.81,2,7.5,2,.26,0,.5,0,.75,0a5.51,5.51,0,0,0,3.89-1.77C148.37,50.52,148.34,50.31,148.34,50.08Z"/><path class="cls-11" d="M141.49,43c-2.67,0-4.44-1.37-4.44-3.08s1.77-3.08,4.44-3.08a13.09,13.09,0,0,1,3.28.67,3,3,0,0,0-.66-1.24c-.38-.24-.73-.47-1-.7a3.74,3.74,0,0,0-2.84.16,7.67,7.67,0,0,0-2.51,1.78A10.62,10.62,0,0,0,136.58,39a47.14,47.14,0,0,0-2.8,5.37,4.76,4.76,0,0,1,2.36,2.46,30.36,30.36,0,0,0,6.57-4A7.61,7.61,0,0,1,141.49,43Z"/><path class="cls-11" d="M127.57,50.82c-1.26.62-2.61,1.33-3.81,2a14.15,14.15,0,0,0-2.84,2.05c-1.78,1.85-2.39,3.93-1.9,5.45a2.89,2.89,0,0,0,.64,1.13c1.4,1.45,4,1.06,6.33-1.31a23,23,0,0,0,3-5c.31-.64.62-1.29.91-1.91A4.82,4.82,0,0,1,127.57,50.82Z"/><line class="cls-12" x1="138.56" y1="68.1" x2="138.56" y2="55.19"/><path class="cls-11" d="M127.15,48.82a5.21,5.21,0,0,1,.32-1.73,39,39,0,0,0-6.27-1.87A7.16,7.16,0,0,0,120,45.1a7.94,7.94,0,0,0-2.27.31,4.44,4.44,0,0,0-2.73,2,2.84,2.84,0,0,0-.37,1.4c0,2.06,2.14,3.73,5.37,3.73a16.9,16.9,0,0,0,4.21-.87c1.09-.34,2.23-.73,3.28-1.12A5.22,5.22,0,0,1,127.15,48.82Z"/><path class="cls-11" d="M131.86,53.71a4.64,4.64,0,0,1-1.67-.33c-.2.58-.41,1.19-.6,1.81a24.63,24.63,0,0,0-1.32,6c0,3.35,1.61,5.58,3.59,5.58s3.58-2.23,3.58-5.58a24.63,24.63,0,0,0-1.32-6c-.19-.62-.39-1.23-.59-1.81A4.64,4.64,0,0,1,131.86,53.71Z"/><path class="cls-11" d="M144.05,61.5a3.18,3.18,0,0,0,.79-2.48,6.78,6.78,0,0,0-2.05-4.1,6.39,6.39,0,0,0-.75-.66,38.18,38.18,0,0,0-5.9-3.44,4.84,4.84,0,0,1-2.36,2.46c.28.62.59,1.27.91,1.91a23,23,0,0,0,3,5c.17.17.35.32.52.47C140.4,62.59,142.76,62.84,144.05,61.5Z"/><path class="cls-11" d="M135.44,36.48c0-2.48-.88-4.34-2.13-5.14a2.74,2.74,0,0,0-1.45-.44l-.16,0c-1.31.08-2.42,1.13-3,2.84a8.57,8.57,0,0,0-.43,2.72c0,1.75,1,5,1.92,7.79a4.27,4.27,0,0,1,3.34,0,52.14,52.14,0,0,0,1.66-5.79A11.18,11.18,0,0,0,135.44,36.48Z"/><path class="cls-10" d="M136.56,48.82a5,5,0,0,0-.32-1.73,2,2,0,0,0-.1-.26,4.76,4.76,0,0,0-2.36-2.46l-.25-.1a4.27,4.27,0,0,0-3.34,0l-.25.1a4.78,4.78,0,0,0-2.37,2.46c0,.08-.06.17-.1.26a4.86,4.86,0,0,0,0,3.47,2.77,2.77,0,0,1,.1.26,4.82,4.82,0,0,0,2.37,2.46l.25.1a4.39,4.39,0,0,0,3.34,0l.25-.1a4.84,4.84,0,0,0,2.36-2.46,2.77,2.77,0,0,0,.1-.26A5,5,0,0,0,136.56,48.82Z"/><path class="cls-8" d="M147.76,38.22a4,4,0,0,1,2-2c-.31-.67-.65-1.38-1-2.07a17.19,17.19,0,0,0-2.27-3.64c-1.89-2-4.08-2.29-5.23-1.08a1.67,1.67,0,0,0-.12.16c-1,1.23-.65,3.39,1.16,5.28a7.56,7.56,0,0,0,.8.68c.31.23.66.46,1,.7A40.86,40.86,0,0,0,147.76,38.22Z"/><path class="cls-8" d="M151.31,43.92a3.73,3.73,0,0,1-1.38-.28c-.43,1.24-.86,2.61-1.17,3.84a12.09,12.09,0,0,0-.42,2.6c0,.23,0,.44,0,.65.2,2.4,1.42,4,2.93,4s3-1.83,3-4.61a5,5,0,0,0,0-.52,31.44,31.44,0,0,0-1.55-5.92A3.73,3.73,0,0,1,151.31,43.92Z"/><path class="cls-8" d="M154.93,41.31a33.83,33.83,0,0,0,5,1.5,7.17,7.17,0,0,0,1.18.14c2.68,0,4.44-1.37,4.44-3.08,0,0,0,0,0-.06A3.17,3.17,0,0,0,162.94,37a6.78,6.78,0,0,0-1.81-.24,23.78,23.78,0,0,0-6.2,1.65,4.09,4.09,0,0,1,0,2.87Z"/><path class="cls-8" d="M152.89,43.56a26.07,26.07,0,0,0,3.26,5.71,7.84,7.84,0,0,0,.62.56,4.16,4.16,0,0,0,3.5,1.15,2.32,2.32,0,0,0,1.12-.63c.85-.88.89-2.34.12-3.83a7.14,7.14,0,0,0-1.16-1.61c-.12-.11-.26-.24-.41-.36a29.33,29.33,0,0,0-5.09-3A4,4,0,0,1,152.89,43.56Z"/><path class="cls-8" d="M141.91,45.34c-1.55,1.86-1.76,3.9-.68,5s3.34.88,5.23-1.08a13.22,13.22,0,0,0,1.72-2.6c.54-1,1.07-2.09,1.54-3.11a4,4,0,0,1-2-2,24,24,0,0,0-5.49,3.38C142.13,45.05,142,45.2,141.91,45.34Z"/><path class="cls-8" d="M154.85,38.22a24.3,24.3,0,0,0,5.5-3.38A5,5,0,0,0,162,30.63a2.43,2.43,0,0,0-.61-1.23c-1.16-1.21-3.35-.88-5.24,1.08a21.37,21.37,0,0,0-2.75,4.63c-.17.36-.34.73-.51,1.08A4,4,0,0,1,154.85,38.22Z"/><path class="cls-8" d="M149.19,33.82c.23.77.48,1.55.74,2.29a3.54,3.54,0,0,1,2.76,0c.13-.41.27-.82.41-1.24a21.37,21.37,0,0,0,1.17-5.2,7.82,7.82,0,0,0-.19-1.67c-.42-1.81-1.5-2.94-2.77-2.94a2.93,2.93,0,0,0-2.58,2.28,6.8,6.8,0,0,0-.39,2.33A17.19,17.19,0,0,0,149.19,33.82Z"/><path class="cls-8" d="M141.49,36.79c-2.67,0-4.44,1.38-4.44,3.08S138.82,43,141.49,43a7.61,7.61,0,0,0,1.22-.14,34.28,34.28,0,0,0,5-1.5,4.09,4.09,0,0,1,0-2.87c-.94-.35-2-.69-2.91-1A13.09,13.09,0,0,0,141.49,36.79Z"/><path class="cls-10" d="M152.89,36.19l-.2-.08a3.54,3.54,0,0,0-2.76,0l-.21.08a4,4,0,0,0-2,2c0,.07,0,.15-.08.22a4.09,4.09,0,0,0,0,2.87c0,.07,0,.14.08.22a4,4,0,0,0,2,2l.21.08a3.54,3.54,0,0,0,2.76,0l.2-.08a4,4,0,0,0,2-2l.08-.21a4.09,4.09,0,0,0,0-2.87c0-.07-.05-.14-.08-.22A4,4,0,0,0,152.89,36.19Z"/><path class="cls-1" d="M216,39.23c.35-1.23.76-2.52,1.17-3.72l-.26-.1c-.53,1.15-1.12,2.38-1.72,3.51A8.53,8.53,0,0,1,216,39.23Z"/><path class="cls-1" d="M196.79,47.85a52.92,52.92,0,0,1-3.41,6.46h1.85A58.33,58.33,0,0,1,197.07,48Z"/><path class="cls-1" d="M202.2,33.35c-.39,1.4-.86,2.87-1.32,4.24a1.69,1.69,0,0,1,.28.12c.57-1.26,1.22-2.59,1.87-3.82A4.57,4.57,0,0,1,202.2,33.35Z"/><path class="cls-1" d="M205.8,39.51q-1,.52-2,1l.12.3c.5-.19,1-.37,1.54-.55A5.66,5.66,0,0,1,205.8,39.51Z"/><path class="cls-1" d="M213.07,33.5l1.31-.66c0-.09-.06-.19-.1-.28l-.94.34Q213.22,33.2,213.07,33.5Z"/><path class="cls-1" d="M218.59,49.46c-1.32-.14-2.44-1.23-3-3a8.56,8.56,0,0,1-3.08.53c-1.92,0-5.52-1.15-8.51-2.26l-.12.3c2.87,1.42,6.2,3.25,7.55,4.66a7.74,7.74,0,0,1,2.33,4.6h.76A15.65,15.65,0,0,1,218.59,49.46Z"/><path class="cls-1" d="M185.47,38.54c1.92,0,5.51,1.15,8.51,2.26,0-.1.07-.2.11-.3-2.87-1.42-6.19-3.24-7.55-4.66-2.6-2.69-3-5.82-1.43-7.48s4.6-1.21,7.19,1.49c1.36,1.41,3.12,4.87,4.49,7.86a1.39,1.39,0,0,1,.28-.12A47,47,0,0,1,195,29.86c-4.18-2.91-7.82-8.11-7.6-17.44,0,0,15.93-2.22,18.89,14.44h.16a14.31,14.31,0,0,1,3.37.61,3.39,3.39,0,0,1,3,.9l0,.07,1.39.5c0-.09.07-.18.1-.27-2.64-1.31-5.7-3-6.95-4.29-2.39-2.48-2.78-5.36-1.32-6.88s4.23-1.11,6.62,1.37c1.25,1.3,2.87,4.48,4.13,7.23l.26-.11c-1-2.87-2-6.31-2-8.15,0-3.51,1.68-5.83,3.75-5.83a2.62,2.62,0,0,1,1.16.29V0H179.36V42.78C179.36,40.44,181.79,38.54,185.47,38.54Z"/><path class="cls-1" d="M186.54,49.71c1.36-1.41,4.68-3.24,7.55-4.66l-.11-.3c-3,1.11-6.59,2.26-8.51,2.26-3.68,0-6.11-1.89-6.11-4.23V54.31h4.86A7.78,7.78,0,0,1,186.54,49.71Z"/><path class="cls-1" d="M200.88,48a60.67,60.67,0,0,1,1.84,6.34h1.85a52.36,52.36,0,0,1-3.41-6.47Z"/><path class="cls-7" d="M218.61,50.29a15.72,15.72,0,0,0-4.09,4.85c-.26.45-.49.9-.7,1.36a22.51,22.51,0,0,0-1.95,8.38c.67.11,1.32.2,1.95.26a22.6,22.6,0,0,0,6.23-.19V50a2.76,2.76,0,0,1-1.16.29C218.8,50.33,218.71,50.3,218.61,50.29Z"/><path class="cls-8" d="M217,27.08c-1.26-2.75-2.88-5.93-4.13-7.23-2.39-2.49-5.15-2.89-6.62-1.37s-1.07,4.4,1.32,6.88c1.25,1.3,4.31,3,7,4.29A5,5,0,0,1,217,27.08Z"/><path class="cls-8" d="M215.14,18.72c0,1.83,1,5.27,2,8.14a4.83,4.83,0,0,1,1.75-.34,4.51,4.51,0,0,1,1.16.16V13.17a2.8,2.8,0,0,0-1.16-.29C216.82,12.88,215.14,15.2,215.14,18.72Z"/><path class="cls-8" d="M217.15,36.34c-.41,1.19-.82,2.48-1.17,3.72a19.12,19.12,0,0,0-.84,4.43,8.69,8.69,0,0,0,.45,2.82c.59,1.75,1.71,2.84,3,3a2.36,2.36,0,0,0,.28,0,2.65,2.65,0,0,0,1.16-.29V36.53a5,5,0,0,1-1.16.16A4.63,4.63,0,0,1,217.15,36.34Z"/><path class="cls-8" d="M207.56,37.82a8.45,8.45,0,0,0-1.64,2.39,7.54,7.54,0,0,0-.29.74,3.69,3.69,0,0,0,.61,3.76c1.46,1.52,4.23,1.11,6.62-1.38a18.21,18.21,0,0,0,2.4-3.71c.6-1.13,1.19-2.36,1.72-3.51a5,5,0,0,1-2.47-2.57l-1.32.66A25.43,25.43,0,0,0,207.56,37.82Z"/><path class="cls-8" d="M200.93,31.61a3.33,3.33,0,0,0,1.37,2.6,4.39,4.39,0,0,0,.83.54,7.48,7.48,0,0,0,3.42.76,26.23,26.23,0,0,0,6.89-1.74l.94-.34a5.49,5.49,0,0,1-.33-1.82,5.38,5.38,0,0,1,.33-1.81L213,29.3c-1-.36-2.09-.7-3.08-1a13.83,13.83,0,0,0-3.36-.61h-.17a7.36,7.36,0,0,0-3.29.76A3.61,3.61,0,0,0,200.93,31.61Z"/><path class="cls-10" d="M217.15,26.86l-.26.11a5,5,0,0,0-2.47,2.57l-.11.27a5.18,5.18,0,0,0,0,3.64l.11.27a5,5,0,0,0,2.47,2.57l.26.11a4.87,4.87,0,0,0,1.75.34,4.45,4.45,0,0,0,1.16-.16v-9.9a4.45,4.45,0,0,0-1.16-.16A4.87,4.87,0,0,0,217.15,26.86Z"/><line class="cls-12" x1="109.97" y1="80.95" x2="220.03" y2="80.95"/><line class="cls-12" x1="109.97" y1="68.1" x2="220.05" y2="68.1"/><line class="cls-12" x1="206.52" y1="68.1" x2="206.52" y2="55.19"/><line class="cls-12" x1="188.96" y1="81.02" x2="188.96" y2="68.1"/><line class="cls-12" x1="154.27" y1="80.31" x2="154.27" y2="67.4"/><line class="cls-12" x1="119.72" y1="81.02" x2="119.72" y2="68.1"/><line class="cls-12" x1="172.62" y1="68.1" x2="172.62" y2="55.19"/></svg>