<svg xmlns="http://www.w3.org/2000/svg" width="95.55" height="35.917" viewBox="0 0 95.55 35.917">
  <g id="hunger" transform="translate(-140.225 -2831)">
    <g id="Path_819" data-name="Path 819" transform="translate(181 2831)" fill="#fff">
      <path d="M 7 13.5 C 3.415889978408813 13.5 0.5 10.58411026000977 0.5 7 C 0.5 3.415889978408813 3.415889978408813 0.5 7 0.5 C 10.58411026000977 0.5 13.5 3.415889978408813 13.5 7 C 13.5 10.58411026000977 10.58411026000977 13.5 7 13.5 Z" stroke="none"/>
      <path d="M 7 1 C 3.691590309143066 1 1 3.691590309143066 1 7 C 1 10.30840969085693 3.691590309143066 13 7 13 C 10.30840969085693 13 13 10.30840969085693 13 7 C 13 3.691590309143066 10.30840969085693 1 7 1 M 7 0 C 10.86598968505859 0 14 3.134010314941406 14 7 C 14 10.86598968505859 10.86598968505859 14 7 14 C 3.134010314941406 14 0 10.86598968505859 0 7 C 0 3.134010314941406 3.134010314941406 0 7 0 Z" stroke="none" fill="#707070"/>
    </g>
    <line id="Line_92" data-name="Line 92" y1="27" x2="41" transform="translate(140.5 2839.5)" fill="none" stroke="#707070" stroke-width="1"/>
    <line id="Line_129" data-name="Line 129" x1="41" y1="27" transform="translate(194.5 2839.5)" fill="none" stroke="#707070" stroke-width="1"/>
  </g>
</svg>
