<svg id="Layer_1" data-name="Layer 1" xmlns="http://www.w3.org/2000/svg" viewBox="0 0 65.99 111.35"><defs><style>.cls-1{fill:#404041;}</style></defs><path class="cls-1" d="M20,104.52a3.88,3.88,0,0,0,2.52,6.83,3.84,3.84,0,0,0,2.52-.93c.44-.37,9.72-8.42,11.53-18.74,11.77-1,18.72-7.09,22.55-12.25,6.61-8.9,8.64-21.35,5.28-32.48C61.1,36,53.88,27.31,47.51,19.61c-5-6-9.64-11.64-10.72-16.56a3.88,3.88,0,0,0-7.58,0C28.13,8,23.44,13.62,18.49,19.61,12.12,27.31,4.9,36,1.6,47-1.76,58.08.26,70.53,6.87,79.43A30.31,30.31,0,0,0,28.66,91.6C26.82,98.57,20.07,104.46,20,104.52ZM13.1,74.8C8,67.94,6.41,57.89,9,49.2c2.84-9.43,9.53-17.51,15.43-24.64A111.45,111.45,0,0,0,33,13.36a111.29,111.29,0,0,0,8.53,11.2C47.43,31.69,54.12,39.77,57,49.2c2.62,8.69,1,18.74-4.08,25.6-4.16,5.61-10.34,8.77-18,9.22v-2.4l11.4-6.18A1.94,1.94,0,0,0,44.49,72l-9.55,5.18V65.43L53.22,55.25a1.94,1.94,0,0,0-1.89-3.39L34.94,61V47l11.45-6.68a1.94,1.94,0,0,0-2-3.36l-9.5,5.55V28.64a1.94,1.94,0,1,0-3.88,0V42.55L21.56,37a1.94,1.94,0,0,0-2,3.36L31.06,47V61L14.67,51.86a1.94,1.94,0,0,0-1.89,3.39L31.06,65.43V77.21L21.5,72a1.94,1.94,0,0,0-1.85,3.41l11.41,6.18V84C23.45,83.57,17.26,80.41,13.1,74.8Z"/></svg>