<svg id="Layer_1" data-name="Layer 1" xmlns="http://www.w3.org/2000/svg" viewBox="0 0 126.85 126.85"><defs><style>.cls-1{fill:#404041;}</style></defs><path class="cls-1" d="M1.14,125.72a3.84,3.84,0,0,0,2.74,1.13,3.82,3.82,0,0,0,1.93-.51C16.47,120.22,23,122,30,123.89c7.61,2.06,16.24,4.41,27.25-6.61,12.37-12.37,13.63-26.69,3.88-40.15l12-2.55A13.38,13.38,0,0,0,93,75.8a13.39,13.39,0,0,0,16.29-3.18,13.37,13.37,0,0,0,10.57-24.44c-.22-.12-.45-.23-.69-.34a3.28,3.28,0,0,0-.31-.2c-.92-.52-6.1-3.06-18.18-1.87A73.49,73.49,0,0,0,72,54.84a73.16,73.16,0,0,0,9.07-28.67C82.28,14.1,79.73,8.91,79.21,8L79,7.68c-.11-.24-.22-.47-.34-.69A13.37,13.37,0,0,0,54.23,17.56,13.32,13.32,0,0,0,50,30.91a13.16,13.16,0,0,0,1.1,2.94,13.39,13.39,0,0,0-2.23,15.78,13.27,13.27,0,0,0,3.45,4.1l-2.54,12C36.27,56,22,57.25,9.58,69.62-1.44,80.64.9,89.26,3,96.87,4.85,103.82,6.64,110.38.52,121A3.87,3.87,0,0,0,1.14,125.72ZM101.45,53.5c7.77-.78,11.83.28,13.16.74a3.73,3.73,0,0,0,.86.46,5.25,5.25,0,0,1,.69.31,5.6,5.6,0,0,1-5.35,9.85,6.16,6.16,0,0,1-.64-.42,3.88,3.88,0,0,0-5.86,1.64,6.08,6.08,0,0,1-.74,1.28,5.62,5.62,0,0,1-5.77,2A5.48,5.48,0,0,1,95,67.72a3.87,3.87,0,0,0-6.36,1l-.13.27a5.59,5.59,0,0,1-10-.35A3.89,3.89,0,0,0,75,66.34a3.72,3.72,0,0,0-.81.09L66.26,68.1A66,66,0,0,1,101.45,53.5ZM55.19,41.66a5.61,5.61,0,0,1,2.68-3.33l.3-.13a3.88,3.88,0,0,0,1-6.36,5.49,5.49,0,0,1-1.64-2.79,5.63,5.63,0,0,1,2-5.77,6,6,0,0,1,1.28-.73,3.89,3.89,0,0,0,1.63-5.87,6.46,6.46,0,0,1-.41-.63,5.61,5.61,0,0,1,4.92-8.28A5.41,5.41,0,0,1,68.51,8a5.55,5.55,0,0,1,3.34,2.7,5.85,5.85,0,0,1,.3.68,3.73,3.73,0,0,0,.46.86c.46,1.33,1.52,5.39.75,13.16A66.06,66.06,0,0,1,58.75,60.6l1.68-7.93a3.86,3.86,0,0,0-2.19-4.33,5.59,5.59,0,0,1-3.05-6.68ZM17.86,97.37a2.33,2.33,0,0,0,3.29-3.29L9.74,82.67a15.32,15.32,0,0,1,1.19-2.46L24.82,94.1a2.33,2.33,0,0,0,3.3-3.29L13.77,76.46q.6-.66,1.29-1.35l1-.93,9,9a2.33,2.33,0,1,0,3.3-3.3l-8.64-8.63c9.88-7,20.19-5.25,30.72,5.28,12.16,12.17,12.63,24.05,1.37,35.3-7.83,7.84-12.56,6.55-19.72,4.61a45,45,0,0,0-12.23-2.05,30.65,30.65,0,0,0-8.5,1.21c2.46-8.61.67-15.17-.83-20.72a40.92,40.92,0,0,1-1.38-6.25Z"/></svg>